{"glyphs":{"0":{"ha":1011,"x_min":-29,"x_max":956,"o":"m 903 161 q 864 58 899 119 q 649 -107 788 -75 q 415 -118 600 -118 q 182 -107 256 -118 q 34 -9 97 -94 q -22 163 -29 76 l 22 681 q 61 785 25 721 q 210 928 117 885 q 415 963 289 963 l 465 963 q 493 961 464 963 q 510 961 493 961 q 718 954 681 961 q 892 851 828 936 q 949 682 956 767 l 903 161 m 749 156 l 794 688 q 756 763 797 722 q 679 806 714 803 q 497 807 663 807 q 444 808 479 807 q 392 810 410 810 q 233 767 285 810 q 172 619 182 725 q 167 567 169 594 q 179 517 167 536 q 225 503 183 510 q 283 490 274 494 q 311 444 314 476 l 286 157 q 322 81 283 119 q 400 38 361 43 q 507 36 410 36 l 551 36 q 588 38 547 36 q 613 38 588 38 q 696 81 646 38 q 749 156 746 124 z "},"1":{"ha":393,"x_min":-47,"x_max":354,"o":"m 267 -65 q 193 -117 263 -108 q 107 -118 182 -118 q 17 -115 33 -118 q -43 -64 -47 -104 l 1 444 q 24 481 3 468 q 111 504 39 490 q 165 554 161 514 l 197 907 q 228 949 200 933 q 279 961 250 961 q 328 949 307 961 q 351 908 354 933 l 267 -65 z "},"2":{"ha":994,"x_min":-39,"x_max":954,"o":"m 894 57 q 883 -44 888 -28 q 824 -118 868 -118 l 7 -118 q -39 -22 -39 -118 q -31 78 -39 -18 q 3 279 -18 222 q 169 464 49 404 q 299 499 240 499 l 651 499 q 735 541 688 499 q 788 619 782 583 q 792 653 790 636 q 600 811 806 811 q 551 809 583 811 q 501 807 518 807 q 462 809 525 807 q 390 811 399 811 q 319 804 338 811 q 286 747 292 793 q 265 675 279 692 q 200 653 247 653 q 131 719 131 653 q 132 749 131 732 q 283 946 144 904 q 506 961 333 961 q 743 950 676 961 q 901 843 844 933 q 946 653 954 758 q 858 453 936 539 q 665 353 776 364 q 647 349 660 353 q 628 344 635 344 l 428 344 q 344 301 396 344 q 290 225 293 257 l 275 36 l 733 36 q 746 116 743 57 q 760 196 749 175 q 832 232 779 232 q 904 157 904 232 q 894 57 904 167 z "},"3":{"ha":992,"x_min":-25,"x_max":907,"o":"m 738 -75 q 564 -118 644 -118 l 411 -118 q 189 -107 240 -118 q 1 47 47 -76 q -21 178 -25 118 q 61 236 -17 236 q 126 203 111 236 q 144 121 132 193 q 179 67 150 90 q 242 38 208 43 q 350 36 250 36 q 500 53 456 36 q 597 190 588 86 q 599 222 600 218 q 568 294 589 261 q 528 325 561 306 q 483 344 496 344 l 285 344 q 236 422 231 344 q 256 473 238 447 q 299 499 275 499 l 497 499 q 581 541 533 499 q 633 619 628 583 q 638 653 636 635 q 567 792 647 760 q 417 807 528 807 q 310 806 321 807 q 211 744 244 797 l 169 656 q 93 607 138 607 q 42 623 64 607 q 21 667 19 639 q 54 769 24 711 q 229 938 121 897 q 428 961 293 961 q 793 689 793 961 q 775 581 793 639 q 725 482 756 515 q 907 221 907 410 q 860 50 907 138 q 738 -75 810 -42 z "},"4":{"ha":1010,"x_min":21,"x_max":931,"o":"m 926 422 q 875 349 921 360 q 768 344 822 347 q 729 -54 764 342 q 665 -115 725 -104 q 569 -118 650 -118 q 479 -115 497 -118 q 421 -64 417 -106 l 457 344 l 285 344 q 222 356 264 344 q 163 379 179 368 q 53 483 86 426 q 21 626 21 539 q 31 767 21 661 l 43 903 q 125 961 60 961 q 174 949 153 961 q 197 908 200 933 l 172 619 q 179 604 171 618 q 215 538 172 578 q 288 499 258 499 l 624 499 l 660 907 q 690 949 663 933 q 742 961 713 961 q 790 949 769 961 q 814 908 817 933 l 778 503 q 888 493 833 499 q 926 422 931 483 z "},"5":{"ha":964,"x_min":-25,"x_max":917,"o":"m 906 190 q 860 51 900 126 q 738 -75 810 -42 q 564 -118 644 -118 l 411 -118 q 189 -107 240 -118 q 1 47 47 -76 q -21 178 -25 118 q 61 236 -17 236 q 126 203 111 236 q 144 121 132 193 q 179 67 150 90 q 242 38 208 43 q 350 36 250 36 q 500 53 456 36 q 597 190 588 86 q 599 222 600 218 q 568 294 589 261 q 528 325 561 306 q 483 344 496 344 l 49 344 q 14 363 31 344 q -1 399 -3 381 l 43 907 q 68 944 44 926 q 113 961 92 961 l 707 961 q 765 885 772 961 q 747 835 763 857 q 704 808 729 808 l 189 808 l 161 499 l 642 499 q 840 405 763 499 q 906 190 917 311 z "},"6":{"ha":976,"x_min":-18,"x_max":915,"o":"m 906 190 q 876 83 901 142 q 817 -10 850 24 q 526 -121 703 -121 q 471 -119 508 -121 q 415 -118 433 -118 q 377 -119 438 -118 q 310 -121 317 -121 q 243 -117 269 -121 q 46 -26 110 -96 q -18 176 -18 43 q -10 303 -18 192 q -4 392 -8 328 q 24 481 1 468 q 111 501 36 490 q 164 553 161 508 q 264 860 176 764 q 567 961 358 961 q 800 749 819 961 q 781 679 796 699 q 715 653 763 653 q 643 713 643 653 q 647 740 643 722 q 650 768 650 758 q 617 806 650 796 q 543 807 611 807 q 468 806 481 807 q 382 763 429 801 q 332 688 335 725 l 315 499 l 642 499 q 839 406 763 499 q 906 190 915 313 m 751 190 q 753 224 751 196 q 713 301 754 257 q 638 344 671 344 l 303 344 l 286 157 q 323 81 283 119 q 401 38 363 43 q 507 36 411 36 q 656 54 610 36 q 751 190 742 88 z "},"7":{"ha":983,"x_min":28,"x_max":906,"o":"m 900 422 q 849 349 894 360 q 743 344 796 347 q 704 -54 740 343 q 640 -115 700 -104 q 544 -118 625 -118 q 457 -117 467 -118 q 394 -64 390 -107 l 431 340 l 318 351 q 283 422 278 360 q 303 474 286 449 q 344 499 319 499 l 599 499 l 615 686 q 577 763 618 722 q 499 806 536 804 q 360 807 463 807 q 329 809 376 807 q 276 811 282 811 q 213 801 232 811 q 183 747 186 788 q 163 675 181 697 q 97 653 144 653 q 28 719 28 653 q 29 749 28 733 q 154 936 42 890 q 364 961 215 961 q 568 947 515 961 q 747 785 701 913 q 768 682 771 718 l 753 503 q 861 493 807 499 q 900 422 906 482 z "},"8":{"ha":992,"x_min":-22,"x_max":907,"o":"m 817 -10 q 526 -121 703 -121 q 471 -119 508 -121 q 415 -118 433 -118 q 182 -107 229 -118 q 33 -11 89 -85 q -22 158 -22 63 q 42 360 -22 268 q 211 482 107 451 q 174 619 174 539 q 270 862 174 763 q 510 961 367 961 q 724 874 644 961 q 792 653 803 788 q 769 561 789 613 q 725 482 750 510 q 907 221 907 410 q 883 97 907 161 q 817 -10 857 29 m 638 653 q 603 763 643 718 q 497 807 563 807 q 383 763 431 807 q 329 653 335 719 q 365 544 324 589 q 469 499 406 499 q 583 543 535 499 q 638 653 632 588 m 751 190 q 685 324 760 290 q 533 344 639 344 q 383 326 429 344 q 289 190 299 293 q 358 56 279 89 q 507 36 404 36 q 656 54 610 36 q 751 190 742 88 z "},"9":{"ha":999,"x_min":19,"x_max":928,"o":"m 915 303 l 907 204 q 886 104 903 151 q 686 -94 833 -49 q 433 -118 611 -118 q 224 -96 279 -118 q 121 97 108 -50 q 207 196 129 196 q 278 142 278 196 q 275 112 278 132 q 272 82 272 92 q 304 38 272 47 q 381 36 307 36 q 393 36 371 36 q 457 38 417 38 q 542 80 493 38 q 594 157 592 122 l 611 344 l 285 344 q 94 424 169 344 q 19 621 19 504 q 142 886 19 799 q 433 961 247 961 q 512 956 460 961 q 589 950 564 950 q 718 876 653 949 q 788 739 783 804 q 789 610 792 656 q 785 553 788 594 q 811 506 783 517 q 868 497 822 501 q 913 481 904 494 q 925 415 928 456 q 915 303 924 397 m 624 499 l 640 688 q 627 730 642 703 q 600 769 613 757 q 525 806 568 799 q 419 807 515 807 q 269 789 317 807 q 175 653 185 757 q 172 619 172 625 q 214 542 174 586 q 288 499 254 499 l 624 499 z "}," ":{"ha":507,"x_min":0,"x_max":0,"o":""},"!":{"ha":393,"x_min":-39,"x_max":350,"o":"m 303 363 q 246 267 297 307 q 138 226 194 226 q 33 266 78 226 q -6 364 -11 306 l 35 825 q 90 923 40 885 q 201 961 140 961 q 304 922 258 961 q 344 826 350 883 l 303 363 m 275 36 q 222 -76 268 -33 q 107 -118 176 -118 q -1 -76 38 -118 q -33 36 -39 -33 q 19 148 -28 106 q 135 190 65 190 q 242 147 203 190 q 275 36 282 104 z "},"\"":{"ha":468,"x_min":-8,"x_max":388,"o":"m 379 809 q 375 763 379 809 q 368 704 371 717 q 289 653 350 653 q 217 725 217 653 q 226 792 217 689 l 238 911 q 315 961 256 961 q 388 886 388 961 q 379 809 388 901 m 154 808 q 150 763 154 808 q 142 704 146 718 q 64 653 125 653 q -8 725 -8 653 q 0 792 -8 697 l 11 911 q 90 961 29 961 q 163 886 163 961 q 154 808 163 899 z "},"#":{"ha":840,"x_min":-19,"x_max":790,"o":"m 758 268 q 707 194 753 206 q 601 190 654 193 l 582 81 q 507 36 567 36 q 436 99 436 36 q 439 142 436 113 l 443 186 q 293 190 439 190 l 274 81 q 197 36 258 36 q 128 99 128 36 q 131 142 128 113 l 135 186 l 22 197 q -14 268 -19 206 q 38 340 -8 329 l 144 344 q 161 494 149 349 l 50 506 q 14 576 8 514 q 64 649 19 638 q 171 653 118 650 q 192 765 181 710 q 265 807 204 807 q 335 743 335 807 q 332 700 335 729 q 329 657 329 671 q 479 653 333 653 q 500 765 490 710 q 574 807 513 807 q 643 744 643 807 q 640 701 643 729 q 638 657 638 672 q 747 647 692 653 q 785 576 790 638 q 733 503 779 514 q 628 499 681 501 q 610 349 624 494 q 719 339 665 344 q 758 268 764 328 m 456 346 l 469 499 l 317 499 l 303 346 l 456 346 z "},"$":{"ha":826,"x_min":-29,"x_max":801,"o":"m 482 35 q 433 36 458 35 l 414 -74 q 339 -118 400 -118 q 268 -56 268 -118 q 271 -14 268 -44 l 275 32 q 31 36 271 36 q -14 60 3 31 q -26 113 -29 85 q -8 163 -24 140 q 35 190 10 190 l 289 190 l 301 340 q 13 542 13 332 q 288 810 13 810 q 338 807 313 810 l 360 919 q 433 961 372 961 q 503 897 503 961 q 500 854 503 883 q 497 811 497 825 q 740 807 500 807 q 786 787 771 813 q 799 731 801 761 q 781 681 796 703 q 738 654 763 654 l 483 654 l 469 503 q 760 301 760 513 q 482 35 760 35 m 604 268 q 576 344 611 344 l 457 344 l 443 190 l 563 190 q 604 268 597 190 m 315 499 l 328 653 l 208 653 q 168 576 175 653 q 196 499 161 499 l 315 499 z "},"%":{"ha":988,"x_min":-29,"x_max":961,"o":"m 961 764 l 86 -36 q -29 85 54 -7 l 846 885 q 961 764 883 849 m 336 731 q 283 619 329 661 q 168 576 238 576 q 60 619 100 576 q 26 731 19 663 q 79 842 33 800 q 194 885 125 885 q 303 842 263 885 q 336 731 343 799 m 899 113 q 847 1 893 43 q 731 -42 800 -42 q 624 1 663 -42 q 590 113 585 44 q 642 225 596 182 q 758 268 689 268 q 865 224 826 268 q 899 113 904 181 z "},"&":{"ha":796,"x_min":-15,"x_max":708,"o":"m 699 172 q 617 -62 682 -6 q 369 -118 551 -118 q 86 -61 169 -118 q -15 197 -15 8 q -10 303 -15 225 q -4 392 -8 328 q 24 481 1 467 q 110 503 32 488 q 165 554 161 513 l 186 789 q 221 858 188 813 q 276 918 254 904 q 351 954 313 942 q 433 961 374 961 q 643 750 643 961 q 638 654 643 719 q 624 517 632 589 q 547 397 615 450 q 410 344 478 344 q 339 422 332 344 q 397 496 344 490 q 436 500 410 497 q 471 533 465 510 q 483 653 474 543 q 490 704 485 664 q 496 757 496 738 q 419 807 496 807 q 339 775 342 807 l 285 156 q 323 80 282 119 q 401 38 364 40 q 450 36 421 36 q 535 69 532 36 l 554 290 q 585 332 557 317 q 636 344 607 344 q 708 272 708 344 q 699 172 708 279 z "},"'":{"ha":146,"x_min":-8,"x_max":163,"o":"m 154 808 q 150 763 154 808 q 142 704 146 718 q 64 653 125 653 q -8 725 -8 653 q 0 792 -8 697 l 11 911 q 90 961 29 961 q 163 886 163 961 q 154 808 163 899 z "},"(":{"ha":503,"x_min":-4,"x_max":554,"o":"m 440 -196 q 419 -249 438 -226 q 371 -272 400 -272 q 272 -249 333 -272 q 56 -6 129 -193 q -4 339 -4 147 q 0 422 -4 379 q 38 611 7 497 q 68 718 61 701 q 229 981 126 871 q 493 1117 356 1117 q 547 1039 554 1117 q 525 979 544 997 q 475 957 504 974 q 343 701 378 846 q 308 422 326 632 q 296 215 296 276 q 314 40 296 129 q 383 -118 338 -78 q 426 -136 400 -122 q 440 -196 443 -154 z "},")":{"ha":568,"x_min":-57,"x_max":496,"o":"m -54 -196 q -42 -249 -57 -225 q 1 -272 -28 -272 q 104 -249 38 -272 q 388 40 276 -187 q 494 422 478 225 q 496 483 496 439 q 478 718 496 636 q 363 982 444 872 q 122 1117 261 1117 q 54 1039 61 1117 q 67 979 50 997 q 113 957 86 974 q 200 650 200 829 q 185 422 200 604 q 163 219 172 274 q 113 39 146 129 q 15 -118 68 -79 q -31 -136 -1 -122 q -54 -196 -50 -154 z "},"*":{"ha":528,"x_min":4,"x_max":458,"o":"m 458 918 l 342 811 q 440 703 367 779 l 321 593 l 222 701 q 104 593 188 674 l 4 703 l 122 811 q 22 919 97 842 l 143 1029 l 242 921 q 358 1029 275 949 l 458 918 z "},"+":{"ha":529,"x_min":-6,"x_max":469,"o":"m 456 344 l 303 344 q 289 192 296 303 l 133 192 l 147 344 q -6 344 106 347 l 7 500 l 161 500 q 174 653 167 542 l 329 653 l 315 500 q 375 499 336 499 q 469 500 414 499 l 456 344 z "},",":{"ha":392,"x_min":-6,"x_max":329,"o":"m 306 -82 q 293 -210 294 -204 q 211 -272 276 -272 q 142 -211 142 -272 q 144 -167 142 -196 q 147 -122 147 -137 q 7 36 -6 -99 q 58 149 13 107 q 175 190 104 190 q 315 31 329 190 q 306 -82 314 6 z "},"-":{"ha":706,"x_min":-6,"x_max":624,"o":"m 610 346 l -6 346 l 7 499 l 624 499 l 610 346 z "},"‐":{"ha":706,"x_min":-6,"x_max":624,"o":"m 610 346 l -6 346 l 7 499 l 624 499 l 610 346 z "},".":{"ha":397,"x_min":-6,"x_max":314,"o":"m 308 36 q 256 -76 303 -33 q 140 -118 210 -118 q 33 -76 71 -118 q 0 36 -6 -33 q 52 148 6 106 q 168 190 99 190 q 276 148 238 190 q 308 36 314 106 z "},"/":{"ha":442,"x_min":-49,"x_max":521,"o":"m 521 986 l 68 -231 q -49 -110 36 -201 l 406 1107 q 521 986 443 1071 z "},":":{"ha":386,"x_min":-28,"x_max":336,"o":"m 329 499 q 276 387 322 429 q 161 344 231 344 q 53 387 92 344 q 21 499 15 429 q 72 610 26 568 q 188 653 118 653 q 297 610 257 653 q 329 499 336 568 m 289 36 q 236 -76 282 -33 q 121 -118 190 -118 q 13 -75 53 -118 q -21 36 -28 -32 q 32 148 -14 106 q 147 190 78 190 q 256 147 215 190 q 289 36 296 104 z "},";":{"ha":385,"x_min":-26,"x_max":343,"o":"m 336 499 q 283 387 329 429 q 168 344 238 344 q 60 388 100 344 q 26 499 19 431 q 79 610 33 568 q 194 653 125 653 q 303 610 263 653 q 336 499 343 567 m 285 -82 q 272 -210 274 -204 q 190 -272 256 -272 q 121 -211 121 -272 q 128 -122 121 -206 q -14 36 -26 -99 q 38 148 -8 106 q 154 190 83 190 q 294 31 308 190 q 285 -82 293 6 z "},"<":{"ha":417,"x_min":0,"x_max":353,"o":"m 332 306 q 221 193 293 268 l 104 301 q 0 419 39 363 q 256 650 82 500 q 353 538 290 613 q 218 419 308 497 l 332 306 z "},"=":{"ha":663,"x_min":-19,"x_max":636,"o":"m 624 500 l 7 500 l 21 653 l 636 653 l 624 500 m 596 192 l -19 192 l -6 344 l 610 344 l 596 192 z "},">":{"ha":422,"x_min":-10,"x_max":342,"o":"m -10 306 q 81 193 21 268 l 217 301 q 342 419 292 363 q 126 650 274 500 q 10 538 85 613 q 124 419 47 497 l -10 306 z "},"?":{"ha":792,"x_min":15,"x_max":783,"o":"m 775 622 q 687 457 767 531 q 515 383 607 383 l 379 383 q 360 325 369 338 q 306 303 344 303 q 247 360 247 303 q 276 497 247 478 q 328 508 293 508 l 386 508 q 475 543 432 508 q 522 622 518 578 q 499 697 526 664 q 429 735 471 731 q 306 736 415 736 q 278 739 303 738 q 231 739 263 740 q 176 733 189 738 q 150 686 153 724 q 133 628 146 642 q 79 610 118 610 q 24 688 15 610 q 79 809 31 756 q 193 863 128 863 l 550 863 q 715 790 646 863 q 775 622 783 717 m 414 106 q 372 13 408 47 q 276 -21 335 -21 q 188 15 221 -21 q 161 106 156 50 q 204 197 167 163 q 299 232 242 232 q 388 197 356 232 q 414 106 419 163 z "},"@":{"ha":1131,"x_min":-1,"x_max":1083,"o":"m 1032 303 q 961 232 996 251 q 879 204 938 218 q 831 190 821 190 q 763 215 819 190 q 697 247 707 239 q 515 175 625 175 q 349 245 413 175 q 293 417 285 315 q 379 590 301 517 q 558 664 457 664 q 667 632 607 664 q 750 560 728 600 q 782 404 778 507 q 803 368 782 386 q 844 350 825 350 q 902 379 879 350 q 928 444 925 408 q 929 475 929 461 q 821 710 929 613 q 574 807 713 807 q 276 684 400 807 q 153 388 153 561 q 299 103 153 210 q 458 36 389 36 l 947 36 l 935 -118 l 444 -118 q 288 -74 403 -118 q 72 107 150 -21 q -1 379 -1 226 q 176 787 -1 613 q 588 961 353 961 q 936 819 789 961 q 1083 478 1083 678 q 1032 303 1083 378 m 626 404 q 607 478 629 446 q 544 510 585 510 q 481 480 511 510 q 447 417 450 450 q 469 355 444 381 q 529 329 493 329 q 592 351 561 329 q 626 404 624 374 z "},"A":{"ha":1004,"x_min":-47,"x_max":913,"o":"m 900 131 q 882 -64 892 36 q 801 -118 876 -118 q 751 -102 778 -118 q 726 -64 725 -86 l 760 311 q 749 332 760 319 q 731 344 739 344 l 301 344 l 265 -65 q 193 -117 261 -108 q 107 -118 182 -118 q 17 -115 33 -118 q -43 -64 -47 -104 l 1 444 q 64 494 4 483 q 143 515 135 508 q 164 553 163 533 q 193 733 169 619 q 315 899 228 836 q 510 961 401 961 q 704 889 622 961 q 788 707 786 817 q 792 692 788 704 q 796 672 797 679 l 781 497 q 796 485 786 493 q 913 286 913 458 q 900 131 913 279 m 624 500 l 640 682 q 626 728 640 699 q 600 769 613 757 q 531 806 581 789 q 497 807 526 807 q 393 769 446 807 q 332 681 336 729 l 315 500 l 624 500 z "},"B":{"ha":992,"x_min":-44,"x_max":914,"o":"m 906 190 q 817 -8 896 78 q 625 -110 735 -99 q 607 -114 619 -110 q 588 -118 594 -118 l 7 -118 q -27 -99 -10 -118 q -43 -64 -44 -81 l 43 907 q 60 934 43 915 q 85 954 76 953 q 315 961 133 961 q 589 950 518 961 q 754 826 697 933 q 792 653 800 742 q 768 562 789 617 q 725 482 747 507 q 867 368 819 444 q 906 190 914 292 m 638 653 q 639 686 638 658 q 599 763 640 719 q 524 807 557 807 l 189 807 l 163 499 l 488 499 q 588 547 543 499 q 638 653 632 596 m 751 190 q 753 224 751 197 q 713 300 754 256 q 638 344 671 344 l 303 344 l 275 36 l 601 36 q 701 85 657 36 q 751 190 746 133 z "},"C":{"ha":964,"x_min":-15,"x_max":951,"o":"m 904 178 q 885 114 904 168 q 858 47 865 60 q 644 -107 789 -75 q 421 -118 593 -118 q 108 -72 194 -118 q -15 196 -15 -7 q -10 303 -15 225 q -4 392 -8 328 q 24 481 1 468 q 111 501 36 490 q 164 553 161 508 q 300 889 179 794 q 588 961 393 961 q 778 942 724 961 q 932 769 886 903 q 947 667 951 713 q 865 607 942 607 q 799 639 814 607 q 781 722 793 650 q 683 806 769 785 q 574 807 678 807 q 464 806 472 807 q 382 760 425 799 q 332 682 335 719 l 285 156 q 323 79 282 119 q 401 38 364 39 q 508 36 433 36 q 617 38 606 36 q 715 97 682 46 q 757 186 754 183 q 832 236 788 236 q 884 221 861 236 q 904 178 907 206 z "},"D":{"ha":990,"x_min":-44,"x_max":944,"o":"m 940 411 q 679 60 938 386 q 510 -118 539 -118 l 7 -118 q -27 -99 -10 -118 q -43 -64 -44 -81 l 43 907 q 68 944 44 926 q 113 961 92 961 l 585 961 q 681 881 631 961 q 742 775 696 857 q 910 508 775 729 q 940 411 944 451 m 771 419 q 531 807 689 558 l 189 807 l 167 554 q 179 517 165 540 q 226 503 183 510 q 283 490 275 493 q 311 444 314 476 l 275 36 l 469 36 l 771 419 z "},"E":{"ha":946,"x_min":-19,"x_max":974,"o":"m 885 -42 q 867 -92 882 -69 q 824 -118 849 -118 l 244 -118 q 182 -106 224 -118 q 122 -83 140 -94 q 13 19 44 -36 q -19 164 -19 75 q -11 303 -19 206 l -4 393 q 14 469 1 454 q 82 499 28 490 q 135 511 124 504 q 164 553 160 522 q 174 644 169 599 q 193 733 181 697 q 344 918 239 864 q 582 964 432 964 q 641 963 601 964 q 700 961 681 961 l 914 961 q 967 885 974 961 q 947 835 964 858 q 904 807 928 807 l 464 807 q 382 761 431 807 q 331 682 333 715 l 315 499 l 878 499 q 916 473 903 499 q 926 422 929 447 q 907 372 924 396 q 864 344 888 344 l 301 344 l 285 156 l 292 142 q 330 76 286 115 q 401 36 374 36 l 838 36 q 876 10 864 36 q 885 -42 888 -15 z "},"F":{"ha":926,"x_min":-47,"x_max":974,"o":"m 926 422 q 907 372 924 396 q 864 344 888 344 l 301 344 l 265 -65 q 193 -117 261 -108 q 107 -118 182 -118 q 17 -115 33 -118 q -43 -64 -47 -104 l 1 444 q 64 494 4 483 q 143 515 136 508 q 164 553 163 535 q 174 644 168 599 q 193 733 181 696 q 344 918 239 864 q 582 964 432 964 q 641 963 601 964 q 700 961 681 961 l 914 961 q 967 885 974 961 q 947 835 964 858 q 904 807 928 807 l 464 807 q 382 761 431 807 q 331 682 333 715 l 315 499 l 878 499 q 916 473 903 499 q 926 422 929 447 z "},"G":{"ha":983,"x_min":-19,"x_max":974,"o":"m 900 131 q 890 -4 894 61 q 824 -118 872 -118 l 244 -118 q 182 -106 224 -118 q 122 -83 140 -94 q 13 19 44 -36 q -19 164 -19 75 q -11 303 -19 206 l -4 393 q 14 469 1 454 q 82 499 28 490 q 135 511 124 504 q 164 553 160 522 q 174 644 169 599 q 193 733 181 697 q 344 918 239 864 q 582 964 432 964 q 641 963 601 964 q 700 961 681 961 l 914 961 q 967 885 974 961 q 947 835 964 858 q 904 807 928 807 l 464 807 q 382 762 429 807 q 332 682 335 717 l 285 156 l 292 142 q 330 76 286 115 q 401 36 374 36 l 738 36 l 761 311 q 751 332 763 319 q 731 344 739 344 l 511 344 q 471 371 483 344 q 463 422 460 393 q 567 501 469 501 q 603 500 579 501 q 639 499 626 499 q 835 469 782 499 q 911 301 911 428 q 900 131 911 258 z "},"H":{"ha":1010,"x_min":-47,"x_max":971,"o":"m 883 -65 q 854 -104 881 -90 q 801 -118 828 -118 q 753 -104 775 -118 q 729 -64 726 -89 l 764 344 l 301 344 l 265 -65 q 193 -117 261 -108 q 107 -118 182 -118 q 17 -115 33 -118 q -43 -64 -47 -104 l 43 907 q 74 949 46 933 q 125 961 96 961 q 172 949 151 961 q 196 908 199 933 l 161 500 l 778 500 l 814 907 q 896 961 818 961 q 944 949 924 961 q 968 908 971 933 l 883 -65 z "},"I":{"ha":817,"x_min":-43,"x_max":824,"o":"m 736 -42 q 717 -90 733 -67 q 675 -118 697 -118 l 7 -118 q -32 -92 -19 -118 q -40 -42 -43 -69 q -22 8 -37 -14 q 21 36 -4 36 l 274 36 l 342 807 l 89 807 q 50 835 64 807 q 40 885 38 858 q 113 961 46 961 l 758 961 q 817 885 824 961 q 799 835 814 858 q 756 807 781 807 l 496 807 l 474 553 q 513 506 471 519 q 583 492 515 504 q 619 446 622 481 l 583 40 l 700 29 q 736 -42 742 19 z "},"J":{"ha":1010,"x_min":-43,"x_max":924,"o":"m 915 303 q 882 101 903 161 q 715 -83 838 -24 q 588 -118 644 -118 l 7 -118 q -32 -92 -19 -118 q -40 -42 -43 -69 q -22 8 -37 -14 q 21 36 -4 36 l 457 36 q 541 81 490 36 q 594 157 592 125 l 660 907 q 690 949 663 933 q 742 961 713 961 q 790 949 769 961 q 814 908 817 933 l 783 553 q 839 500 779 510 q 913 481 908 489 q 924 414 924 463 q 915 303 924 399 z "},"K":{"ha":1000,"x_min":-47,"x_max":968,"o":"m 896 72 q 883 -56 885 -50 q 801 -118 867 -118 q 753 -104 775 -118 q 729 -64 726 -89 l 754 218 q 718 299 757 254 q 643 344 679 344 l 301 344 l 265 -65 q 193 -117 261 -108 q 107 -118 182 -118 q 17 -115 33 -118 q -43 -64 -47 -104 l 43 907 q 74 949 46 933 q 125 961 96 961 q 172 949 151 961 q 196 908 199 933 l 161 500 l 486 500 l 651 704 q 756 836 681 742 q 899 961 857 961 q 948 935 928 961 q 965 879 968 910 q 839 701 964 857 l 675 497 q 904 206 904 442 q 896 72 904 164 z "},"L":{"ha":904,"x_min":-44,"x_max":888,"o":"m 885 -42 q 867 -92 882 -69 q 824 -118 849 -118 l 7 -118 q -27 -99 -10 -118 q -43 -64 -44 -81 l 1 444 q 24 481 3 468 q 111 504 39 490 q 165 554 161 514 l 197 907 q 228 949 200 933 q 279 961 250 961 q 328 949 307 961 q 351 908 354 933 l 275 36 l 838 36 q 876 10 864 36 q 885 -42 888 -15 z "},"M":{"ha":1321,"x_min":-47,"x_max":1268,"o":"m 1192 -65 q 1163 -104 1189 -90 q 1110 -118 1138 -118 q 1061 -106 1082 -118 q 1038 -64 1035 -90 l 1103 681 q 1067 758 1106 715 q 993 806 1029 800 q 960 807 985 807 q 926 806 931 807 q 853 769 893 794 q 820 728 846 767 q 794 682 794 690 l 729 -65 q 700 -104 726 -90 q 647 -118 674 -118 q 599 -104 621 -118 q 575 -64 572 -89 l 640 681 q 604 759 643 717 q 529 806 565 801 q 453 807 517 807 l 393 807 q 339 775 342 801 l 267 -65 q 193 -117 263 -108 q 107 -118 182 -118 q 17 -115 33 -118 q -43 -64 -47 -104 l 1 444 q 24 481 3 468 q 111 504 39 490 q 165 554 161 514 l 186 789 q 221 857 188 811 q 276 918 254 903 q 363 956 318 947 q 458 961 393 961 q 603 947 554 961 q 731 864 671 928 q 974 961 843 961 q 1183 878 1099 961 q 1257 672 1268 796 l 1192 -65 z "},"N":{"ha":1013,"x_min":-47,"x_max":949,"o":"m 883 -65 q 854 -104 881 -90 q 801 -118 828 -118 q 753 -104 775 -118 q 729 -64 726 -89 l 794 681 q 758 760 797 717 q 683 806 719 803 q 531 807 665 807 q 504 809 549 807 q 456 811 460 811 q 339 775 342 811 l 265 -65 q 193 -117 261 -108 q 107 -118 182 -118 q 17 -115 33 -118 q -43 -64 -47 -104 l 1 444 q 24 481 3 468 q 111 504 39 490 q 165 554 161 514 l 186 789 q 221 857 188 811 q 276 918 254 903 q 353 954 319 949 q 536 961 392 961 q 744 951 704 961 q 924 796 869 921 q 939 734 929 782 q 947 672 949 686 l 883 -65 z "},"O":{"ha":1011,"x_min":-15,"x_max":951,"o":"m 904 172 q 858 47 900 122 q 644 -107 790 -75 q 421 -118 593 -118 q 108 -72 194 -118 q -15 196 -15 -7 q -10 303 -15 225 q -4 392 -8 328 q 24 481 1 468 q 111 501 36 490 q 164 553 161 508 q 300 889 179 794 q 588 961 393 961 q 778 942 724 961 q 932 769 886 903 q 947 672 951 715 l 904 172 m 749 161 l 794 682 q 781 727 796 697 q 754 769 767 757 q 685 806 725 799 q 574 807 676 807 q 471 807 474 807 q 382 760 424 800 q 332 681 335 715 l 286 157 q 322 81 283 119 q 400 38 361 43 q 508 36 410 36 l 557 36 q 593 38 554 36 q 617 38 593 38 q 698 83 650 38 q 749 161 746 128 z "},"P":{"ha":938,"x_min":-47,"x_max":954,"o":"m 946 653 q 858 453 936 539 q 665 353 776 364 q 647 349 660 353 q 628 344 635 344 l 301 344 l 265 -65 q 193 -117 261 -108 q 107 -118 182 -118 q 17 -115 33 -118 q -43 -64 -47 -104 l 1 444 q 24 481 3 468 q 111 504 39 490 q 165 554 161 514 l 186 789 q 221 857 188 811 q 276 918 254 903 q 399 960 328 953 q 531 961 414 961 q 743 950 676 961 q 901 843 844 933 q 946 653 954 758 m 792 653 q 706 794 801 765 q 528 807 665 807 q 432 808 426 807 q 340 774 343 803 l 315 499 l 651 499 q 733 540 688 499 q 788 619 779 582 q 792 653 790 628 z "},"Q":{"ha":1013,"x_min":-18,"x_max":951,"o":"m 885 -44 q 858 -97 882 -75 q 804 -118 835 -118 q 735 -76 751 -118 q 572 -115 671 -108 q 415 -118 533 -118 q 377 -119 438 -118 q 310 -121 317 -121 q 243 -117 269 -121 q 46 -26 110 -96 q -18 176 -18 43 q -10 303 -18 192 q -4 392 -8 328 q 24 481 1 468 q 111 501 36 490 q 164 553 161 508 q 300 889 179 794 q 588 961 393 961 q 775 939 710 961 q 928 785 889 900 q 949 682 951 715 l 903 161 q 850 35 899 117 q 874 -1 863 25 q 885 -44 886 -28 m 751 201 l 794 688 q 781 729 796 701 q 754 769 767 757 q 679 806 725 799 q 574 807 669 807 l 528 807 q 493 806 533 807 q 468 806 493 806 q 385 762 436 806 q 332 686 335 718 l 286 157 q 322 81 283 119 q 400 38 361 43 q 507 36 410 36 l 581 36 q 651 53 621 38 l 547 219 q 460 386 458 364 q 488 442 463 417 q 542 468 513 468 q 665 342 585 468 q 751 201 674 328 z "},"R":{"ha":997,"x_min":-47,"x_max":947,"o":"m 885 -44 q 858 -97 882 -75 q 804 -118 835 -118 q 761 -111 767 -118 q 611 113 703 -36 l 468 344 l 301 344 l 265 -65 q 193 -117 261 -108 q 107 -118 182 -118 q 17 -115 33 -118 q -43 -64 -47 -104 l 43 907 q 68 944 44 926 q 113 961 92 961 l 671 961 q 869 883 792 961 q 947 685 947 806 q 867 465 947 564 q 667 353 786 365 q 657 347 664 353 q 885 -44 889 -6 m 792 653 q 760 758 797 710 q 668 807 724 807 l 189 807 l 163 499 l 642 499 q 742 547 697 499 q 792 653 786 596 z "},"S":{"ha":983,"x_min":-42,"x_max":961,"o":"m 906 190 q 817 -8 896 78 q 625 -110 735 -99 q 607 -114 619 -110 q 588 -118 594 -118 l 131 -118 q 89 -104 118 -118 q -29 94 -42 -43 q 57 190 -21 190 q 128 129 128 190 q 124 101 128 119 q 119 72 119 82 q 213 31 119 31 q 272 33 239 31 l 306 36 q 483 46 383 38 q 597 190 588 75 q 599 222 599 207 q 568 294 589 260 q 528 325 561 306 q 483 344 496 344 l 285 344 q 94 425 169 344 q 19 621 19 506 q 115 861 19 761 q 349 961 210 961 l 785 961 q 914 896 867 961 q 954 749 961 831 q 935 679 950 699 q 869 653 917 653 q 801 715 801 653 q 803 742 801 725 q 804 769 804 760 q 771 807 804 807 l 315 807 q 231 764 281 807 q 179 686 182 721 q 172 621 174 633 q 213 542 179 581 q 288 499 249 499 l 642 499 q 839 405 763 499 q 906 190 915 311 z "},"T":{"ha":864,"x_min":38,"x_max":974,"o":"m 967 885 q 947 833 964 860 q 906 807 929 807 l 496 807 l 474 553 q 513 506 471 519 q 583 492 515 504 q 619 446 622 481 l 575 -65 q 501 -117 571 -108 q 415 -118 490 -118 q 325 -115 343 -118 q 267 -64 263 -106 l 343 807 l 89 807 q 50 835 64 807 q 40 885 38 858 q 113 961 46 961 l 908 961 q 967 885 974 961 z "},"U":{"ha":1010,"x_min":-44,"x_max":971,"o":"m 893 53 q 819 -58 889 3 q 700 -118 750 -118 l 7 -118 q -27 -99 -10 -118 q -43 -64 -44 -81 l 1 444 q 24 481 3 468 q 111 504 39 490 q 165 554 161 514 l 197 907 q 228 949 200 933 q 279 961 250 961 q 328 949 307 961 q 351 908 354 933 l 275 36 l 704 36 q 726 49 713 36 q 740 69 740 61 l 814 907 q 844 949 817 933 q 896 961 867 961 q 944 949 924 961 q 968 908 971 933 l 893 53 z "},"V":{"ha":996,"x_min":-6,"x_max":972,"o":"m 921 367 q 782 178 919 354 q 526 -118 563 -103 q 417 -126 503 -128 l 347 -125 q 299 -111 310 -124 q 101 178 224 -25 q -4 368 -6 354 l 43 907 q 74 949 46 933 q 125 961 96 961 q 174 949 150 961 q 197 908 199 932 l 154 414 q 231 286 153 404 l 360 88 q 615 404 488 239 l 660 907 q 733 961 664 951 l 819 961 q 908 958 890 961 q 968 908 972 949 l 921 367 z "},"W":{"ha":1318,"x_min":-44,"x_max":1279,"o":"m 1203 53 q 1129 -58 1199 3 q 1010 -118 1060 -118 l 7 -118 q -27 -99 -10 -118 q -43 -64 -44 -81 l 1 444 q 24 481 3 468 q 111 504 39 490 q 165 554 161 514 l 197 907 q 228 949 200 933 q 279 961 250 961 q 328 949 307 961 q 351 908 354 933 l 275 36 l 583 36 l 660 907 q 690 949 663 933 q 742 961 713 961 q 790 949 769 961 q 814 908 817 933 l 738 36 l 1013 36 q 1035 49 1021 36 q 1050 69 1049 61 l 1122 907 q 1153 949 1125 933 q 1204 961 1175 961 q 1253 949 1232 961 q 1276 908 1279 933 l 1203 53 z "},"X":{"ha":1006,"x_min":-47,"x_max":913,"o":"m 900 131 q 882 -64 892 36 q 801 -118 876 -118 q 751 -102 778 -118 q 726 -64 725 -86 l 760 311 q 749 332 760 319 q 731 344 739 344 l 301 344 l 265 -65 q 193 -117 261 -108 q 107 -118 182 -118 q 17 -115 33 -118 q -43 -64 -47 -104 l 1 444 q 24 481 3 468 q 111 504 39 490 q 165 554 161 514 l 197 907 q 228 949 200 933 q 279 961 250 961 q 328 949 307 961 q 351 908 354 933 l 315 500 l 624 500 l 660 907 q 690 949 663 933 q 742 961 713 961 q 792 949 769 961 q 817 908 819 933 l 781 497 q 796 485 786 493 q 913 286 913 458 q 900 131 913 279 z "},"Y":{"ha":1010,"x_min":-42,"x_max":924,"o":"m 915 303 q 882 101 903 161 q 715 -83 838 -24 q 588 -118 644 -118 l 131 -118 q 89 -104 118 -118 q -29 94 -42 -43 q 57 190 -21 190 q 128 129 128 190 q 124 101 128 119 q 119 72 119 82 q 213 31 119 31 q 272 33 239 31 l 306 36 q 457 38 343 36 q 542 80 493 38 q 594 157 592 122 l 610 344 l 285 344 q 222 356 264 344 q 163 379 179 368 q 53 483 86 426 q 21 626 21 539 q 31 767 21 661 l 43 903 q 125 961 60 961 q 174 949 153 961 q 197 908 200 933 l 172 619 q 179 604 171 618 q 215 538 172 578 q 288 499 258 499 l 624 499 l 660 907 q 742 961 664 961 q 790 949 769 961 q 814 908 817 933 l 783 553 q 839 500 779 510 q 913 481 908 489 q 924 414 924 463 q 915 303 924 399 z "},"Z":{"ha":1007,"x_min":-47,"x_max":957,"o":"m 897 94 q 850 -29 890 25 q 744 -104 810 -83 q 700 -118 731 -108 l -47 -118 l -18 218 q 92 410 -8 322 q 297 499 192 499 l 744 499 q 788 575 779 499 q 800 774 794 632 q 790 794 800 783 q 769 806 781 804 q 574 807 758 807 q 529 809 600 807 q 451 811 458 811 q 376 806 397 810 q 336 751 343 799 q 317 676 328 690 q 251 653 297 653 q 182 719 182 653 q 183 749 182 732 q 485 965 201 965 q 536 963 501 965 q 588 961 571 961 q 819 950 772 961 q 956 790 950 919 q 946 653 957 764 q 932 517 942 618 q 861 403 926 463 q 740 344 796 344 l 428 344 q 344 301 396 344 q 290 225 293 257 l 274 36 l 704 36 q 744 79 733 36 q 756 150 746 86 q 828 190 771 190 q 899 122 899 190 q 897 94 899 108 z "},"[":{"ha":503,"x_min":-60,"x_max":522,"o":"m 510 963 l 357 963 l 263 -117 q 335 -119 297 -119 q 415 -117 374 -119 l 401 -272 l -60 -272 l 61 1115 l 522 1115 l 510 963 z "},"\\":{"ha":521,"x_min":49,"x_max":425,"o":"m 49 986 l 288 -231 q 425 -110 325 -201 l 185 1107 q 49 986 140 1071 z "},"]":{"ha":547,"x_min":-60,"x_max":522,"o":"m 49 963 l 201 963 l 107 -117 q 32 -119 71 -119 q -46 -117 -6 -119 l -60 -272 l 401 -272 l 522 1115 l 61 1115 l 49 963 z "},"^":{"ha":438,"x_min":7,"x_max":463,"o":"m 108 1031 q 7 1131 75 1065 q 125 1257 96 1228 q 253 1372 193 1326 q 463 1136 326 1297 q 342 1031 422 1099 q 288 1092 325 1051 q 233 1154 250 1133 l 108 1031 z "},"_":{"ha":854,"x_min":-6,"x_max":778,"o":"m 764 -118 l -6 -118 l 7 35 l 778 35 l 764 -118 z "},"`":{"ha":246,"x_min":85,"x_max":256,"o":"m 247 1157 l 256 1072 q 183 1000 256 1000 q 103 1054 121 1000 q 93 1153 103 1056 l 85 1239 q 157 1308 85 1308 q 238 1251 221 1308 q 247 1157 238 1249 z "},"a":{"ha":853,"x_min":-15,"x_max":769,"o":"m 758 113 q 749 -14 751 26 q 683 -118 731 -118 l 144 -118 q 103 -104 131 -118 q -15 68 -15 -46 q -14 113 -15 96 q 140 331 0 281 q 185 344 179 344 l 465 344 q 475 407 471 364 q 478 447 478 438 q 449 499 478 499 l 229 499 q 181 576 175 499 q 285 656 186 656 q 322 654 297 656 q 358 653 346 653 q 488 649 465 653 q 588 588 544 638 q 633 481 631 539 q 628 448 635 472 q 622 415 622 424 q 651 357 622 374 q 708 343 664 350 q 759 326 749 338 q 769 260 769 314 q 758 113 769 239 m 442 36 l 456 190 l 192 190 q 140 113 147 190 q 168 36 133 36 l 442 36 z "},"b":{"ha":842,"x_min":-47,"x_max":764,"o":"m 758 268 q 688 21 744 110 q 472 -108 617 -86 q 221 -118 410 -118 q 28 -117 43 -118 q -43 -64 -47 -110 l 43 907 q 74 949 46 933 q 125 961 96 961 q 172 949 151 961 q 196 908 199 933 l 174 653 l 500 653 q 597 629 544 653 q 764 371 764 554 q 758 268 764 333 m 604 268 q 611 378 606 297 q 573 456 614 413 q 497 499 532 499 l 161 499 l 153 399 q 167 363 151 388 q 214 347 171 354 q 269 336 264 339 q 297 290 300 322 l 275 36 l 457 36 q 538 77 494 36 q 592 157 581 118 q 604 268 597 178 z "},"c":{"ha":836,"x_min":-6,"x_max":786,"o":"m 756 151 q 724 58 751 107 q 544 -96 656 -58 q 351 -118 479 -118 q 97 -58 182 -118 q -6 174 -6 13 q -4 226 -6 207 q 8 303 0 282 q 67 342 24 342 q 154 361 140 342 q 190 453 156 364 q 218 508 201 482 q 336 613 258 572 q 492 653 414 653 q 696 579 610 653 q 776 383 786 500 q 699 324 771 324 q 640 342 653 324 q 596 449 631 379 q 481 499 560 499 q 336 410 376 499 q 308 265 317 368 q 304 192 304 215 q 443 36 304 36 q 575 101 529 36 q 633 197 596 143 q 689 211 651 211 q 756 151 760 211 z "},"d":{"ha":860,"x_min":-17,"x_max":817,"o":"m 729 -65 q 706 -97 728 -78 q 671 -117 685 -117 q 617 -117 617 -117 l 542 -118 l 457 -118 q 217 -110 275 -118 q 33 -14 88 -92 q -17 190 -17 56 q -14 268 -17 236 q 32 471 -3 397 q 210 629 85 583 q 311 653 275 653 l 638 653 l 660 907 q 690 949 663 933 q 742 961 713 961 q 790 949 769 961 q 814 908 817 933 l 729 -65 m 615 397 l 624 499 l 299 499 q 208 458 258 499 q 153 381 157 418 q 140 268 146 332 q 132 157 139 242 q 172 80 129 124 q 247 36 214 36 l 429 36 l 451 292 q 496 340 454 331 q 571 353 514 344 q 615 397 613 364 z "},"e":{"ha":833,"x_min":-7,"x_max":776,"o":"m 775 303 q 710 190 765 190 l 306 190 q 300 172 301 188 q 335 83 296 131 q 415 36 374 36 l 646 36 q 685 8 671 36 q 693 -42 696 -14 q 633 -117 688 -114 q 444 -118 608 -118 q 117 -74 207 -118 q -7 167 -7 -12 q -4 226 -7 196 q 8 303 1 285 q 67 342 24 342 q 150 358 131 342 q 188 435 164 371 q 218 508 196 460 q 340 613 251 569 q 497 653 422 653 q 707 567 633 653 q 776 347 776 486 q 775 303 776 319 m 624 346 l 626 374 q 613 418 628 388 q 588 460 599 449 q 517 497 567 481 q 483 499 513 499 q 374 456 425 499 q 318 372 322 413 l 315 346 l 624 346 z "},"f":{"ha":676,"x_min":8,"x_max":664,"o":"m 631 576 q 613 526 628 549 q 569 499 594 499 l 317 499 q 309 456 317 483 q 301 413 301 428 q 379 346 301 351 q 436 325 425 342 q 447 260 447 308 q 436 113 447 238 q 425 -1 429 40 q 414 -76 418 -67 q 363 -117 404 -101 q 261 -118 351 -118 q 171 -115 189 -118 q 113 -64 108 -106 l 161 494 l 49 506 q 14 576 8 514 q 64 649 19 638 q 169 653 117 650 q 274 918 186 856 q 494 961 333 961 q 531 963 507 961 q 567 964 554 964 q 657 885 664 964 q 639 835 654 858 q 596 807 621 807 l 376 807 q 354 795 368 807 q 339 775 340 783 l 328 653 l 583 653 q 620 627 607 653 q 631 576 633 601 z "},"g":{"ha":858,"x_min":8,"x_max":808,"o":"m 749 -146 q 710 -249 746 -179 q 511 -408 646 -372 q 297 -425 449 -425 q 252 -426 282 -425 q 207 -428 222 -428 q 136 -414 157 -428 q 114 -349 110 -396 q 141 -287 118 -304 q 211 -269 164 -271 q 303 -269 211 -269 q 388 -227 339 -269 q 440 -150 438 -185 l 443 -117 l 271 -117 q 149 -82 214 -117 q 8 171 8 -7 q 14 269 8 204 q 151 592 35 513 q 490 654 244 654 q 667 647 632 654 q 761 584 714 638 q 804 483 808 531 l 749 -146 m 646 433 q 617 494 650 479 q 544 504 594 506 l 488 501 q 465 500 443 500 q 303 492 339 500 q 179 381 206 469 q 168 269 176 372 q 165 229 167 257 l 160 158 q 199 81 157 124 q 275 38 240 38 l 456 38 l 478 293 q 539 344 482 335 q 621 364 613 357 q 646 433 642 381 z "},"h":{"ha":851,"x_min":-47,"x_max":763,"o":"m 749 154 q 729 -60 740 51 q 647 -118 724 -118 q 599 -104 621 -118 q 575 -64 572 -89 l 614 378 q 575 456 617 413 q 497 499 533 499 l 163 499 q 155 456 163 483 q 147 413 147 428 q 225 346 147 351 q 282 325 271 342 q 293 260 293 308 q 282 113 293 238 q 271 -1 275 40 q 260 -76 264 -67 q 208 -117 250 -101 q 107 -118 197 -118 q 17 -115 33 -118 q -43 -64 -47 -104 l 43 907 q 74 949 46 933 q 125 961 96 961 q 172 949 151 961 q 196 908 199 933 l 174 653 l 500 653 q 622 618 543 653 q 763 353 763 557 q 749 154 763 340 z "},"i":{"ha":393,"x_min":-37,"x_max":356,"o":"m 349 885 q 265 807 342 807 q 194 885 188 807 q 279 961 201 961 q 349 885 356 961 m 267 -65 q 193 -117 263 -108 q 107 -118 182 -118 q -4 -114 7 -118 q -37 -31 -37 -101 q -26 113 -37 -14 l -17 224 q 10 326 -8 318 q 99 347 15 329 q 153 399 150 358 l 169 599 q 199 638 171 624 q 251 653 226 653 q 300 640 279 653 q 324 600 326 625 l 267 -65 z "},"j":{"ha":567,"x_min":-53,"x_max":490,"o":"m 392 885 q 308 807 385 807 q 238 885 231 807 q 321 961 244 961 q 392 885 399 961 m 482 149 q 388 -158 463 -65 q 78 -272 294 -272 q -12 -267 3 -272 q -47 -196 -53 -253 q -25 -136 -43 -150 q 76 -97 4 -125 q 127 -53 94 -90 q 161 3 160 -15 l 213 599 q 242 638 215 624 q 294 653 268 653 q 343 640 322 653 q 367 600 369 625 l 349 397 q 404 346 344 356 q 479 326 474 335 q 490 260 490 308 q 482 149 490 242 z "},"k":{"ha":832,"x_min":-47,"x_max":786,"o":"m 735 0 q 717 -86 729 -64 q 647 -118 699 -118 q 576 -49 576 -118 q 582 11 576 -35 q 585 69 588 50 q 544 151 579 111 q 471 190 510 190 l 288 190 l 265 -65 q 193 -117 261 -108 q 107 -118 182 -118 q 17 -115 33 -118 q -43 -64 -47 -104 l 43 907 q 74 949 46 933 q 125 961 96 961 q 172 949 151 961 q 196 908 199 933 l 147 346 l 426 346 q 528 467 468 394 q 622 588 529 469 q 717 653 674 653 q 766 627 746 653 q 785 571 786 601 q 689 431 783 549 q 592 311 650 382 q 738 58 738 232 q 735 0 738 32 z "},"l":{"ha":510,"x_min":-42,"x_max":428,"o":"m 422 -42 q 399 -101 418 -89 q 185 -118 372 -118 q 1 -112 29 -118 q -42 -50 -42 -104 q -26 113 -42 -62 l -17 224 q 10 326 -8 318 q 99 347 14 329 q 153 399 149 358 l 197 907 q 228 949 200 933 q 279 961 250 961 q 328 949 307 961 q 351 908 354 933 l 275 40 q 385 31 329 35 q 422 -42 428 19 z "},"m":{"ha":1321,"x_min":-25,"x_max":1239,"o":"m 1225 154 q 1206 -60 1217 51 q 1124 -118 1200 -118 q 1075 -104 1097 -118 q 1051 -64 1049 -89 l 1090 378 q 1051 455 1093 414 q 974 497 1010 496 q 961 499 968 497 l 946 499 q 850 468 897 499 q 790 393 803 438 q 781 379 786 392 l 743 -65 q 711 -104 742 -87 q 661 -118 686 -118 q 613 -106 633 -118 q 589 -64 586 -90 l 626 378 q 586 455 629 413 q 511 497 543 497 l 497 497 q 472 499 483 499 l 438 499 q 379 500 367 499 q 326 467 329 496 l 279 -65 q 206 -117 275 -108 q 121 -118 194 -118 q 10 -114 21 -118 q -25 -31 -25 -101 q -14 113 -25 -19 q -3 224 -6 213 q 11 313 6 303 q 81 340 21 331 q 144 362 125 347 q 165 417 163 376 q 175 482 169 467 q 296 631 221 594 q 440 653 343 653 q 593 638 543 653 q 717 556 661 617 q 960 653 829 653 q 1099 618 1018 653 q 1239 353 1239 557 q 1225 154 1239 340 z "},"n":{"ha":1013,"x_min":-25,"x_max":933,"o":"m 915 154 q 897 -60 911 97 q 815 -118 892 -118 q 767 -106 788 -118 q 743 -64 740 -90 l 781 378 q 735 461 785 419 q 661 497 697 493 q 578 499 647 497 q 514 499 578 499 l 486 501 q 436 503 472 503 q 326 467 329 503 l 279 -65 q 206 -117 275 -108 q 121 -118 194 -118 q 10 -114 21 -118 q -25 -31 -25 -101 q -14 113 -25 -19 q -3 224 -6 213 q 11 313 6 303 q 81 340 21 331 q 144 362 125 347 q 165 417 163 376 q 175 482 169 467 q 254 604 208 565 q 389 653 311 653 l 517 653 q 786 624 717 653 q 933 374 924 567 q 915 154 931 338 z "},"o":{"ha":1007,"x_min":-6,"x_max":929,"o":"m 926 268 q 767 -64 906 17 q 429 -118 674 -118 q 138 -82 222 -118 q -6 174 -6 -21 q -4 226 -6 208 q 13 313 1 296 q 86 344 29 339 q 152 365 135 350 q 181 429 169 381 q 296 583 199 514 q 478 651 389 651 q 497 651 497 651 q 529 653 531 653 l 574 653 q 835 590 751 653 q 929 344 929 517 q 926 268 929 301 m 771 268 q 775 344 775 318 q 714 476 775 444 q 560 499 672 499 q 369 455 417 499 q 308 268 321 411 q 304 190 304 219 q 365 58 304 90 q 519 36 407 36 q 710 80 663 36 q 771 268 758 124 z "},"p":{"ha":844,"x_min":-46,"x_max":789,"o":"m 785 269 q 747 76 774 136 q 561 -93 697 -36 q 460 -117 504 -117 l 133 -117 l 111 -372 q 83 -411 108 -397 q 31 -425 58 -425 q -18 -411 4 -425 q -43 -371 -46 -394 l 32 482 q 67 551 33 506 q 122 611 100 596 q 197 647 167 642 q 376 654 235 654 q 689 601 606 654 q 789 356 789 539 q 785 269 789 319 m 631 269 q 635 338 635 315 q 575 478 635 447 q 374 500 531 500 q 210 493 239 500 q 182 433 188 488 q 193 364 178 389 q 239 350 196 358 q 296 338 288 342 q 325 292 328 324 l 303 38 l 483 38 q 565 79 521 38 q 619 158 610 121 q 631 269 621 164 z "},"q":{"ha":860,"x_min":8,"x_max":808,"o":"m 729 -372 q 700 -410 726 -396 q 647 -425 674 -425 q 599 -412 619 -425 q 575 -371 572 -397 l 597 -117 l 271 -117 q 149 -82 214 -117 q 8 171 8 -7 q 14 269 8 204 q 151 592 35 513 q 489 654 243 654 q 667 647 633 654 q 761 583 714 638 q 804 483 808 529 l 729 -372 m 644 433 q 617 494 649 479 q 544 504 594 506 l 492 501 q 465 500 443 500 q 303 492 339 500 q 179 381 206 469 q 168 269 176 372 q 165 229 167 257 l 160 158 q 198 81 157 124 q 274 38 239 38 l 456 38 l 478 293 q 539 344 482 335 q 621 364 613 357 q 644 433 640 379 z "},"r":{"ha":653,"x_min":-25,"x_max":651,"o":"m 644 576 q 626 526 642 550 q 583 499 608 499 l 363 499 q 341 486 356 499 q 326 467 326 474 l 279 -65 q 206 -117 275 -108 q 121 -118 194 -118 q 10 -114 21 -118 q -25 -31 -25 -101 q -14 113 -25 -19 q -3 224 -6 213 q 11 313 6 303 q 81 340 21 331 q 144 362 125 347 q 165 417 163 376 q 175 482 168 468 q 304 636 235 607 q 481 653 344 653 q 517 654 493 653 q 553 656 540 656 q 644 576 651 656 z "},"s":{"ha":840,"x_min":11,"x_max":760,"o":"m 604 -104 q 560 -118 567 -118 l 72 -118 q 33 -92 46 -118 q 25 -42 22 -69 q 43 8 28 -14 q 86 36 61 36 l 408 36 q 450 113 444 36 q 422 190 457 190 l 171 190 q 129 204 157 190 q 11 376 11 263 q 14 422 11 388 q 76 579 21 513 q 222 653 136 653 l 689 653 q 747 576 754 653 q 729 526 744 550 q 686 499 711 499 l 208 499 q 168 422 175 499 q 194 344 161 344 l 600 344 q 642 331 614 344 q 760 160 760 272 q 604 -104 760 -47 z "},"t":{"ha":796,"x_min":8,"x_max":735,"o":"m 731 -42 q 697 -107 726 -89 q 624 -121 674 -121 q 579 -119 608 -121 q 535 -118 550 -118 q 324 -101 382 -118 q 151 58 193 -64 q 132 163 129 125 l 161 494 l 50 506 q 14 576 8 514 q 65 649 19 638 l 171 653 q 196 897 176 697 q 279 961 201 961 q 328 949 307 961 q 351 908 354 933 l 329 653 l 583 653 q 621 625 608 653 q 631 576 633 603 q 613 526 628 549 q 569 499 594 499 l 317 499 q 309 456 317 483 q 301 413 301 428 q 379 344 301 351 q 433 329 418 340 q 447 281 447 318 q 443 219 447 265 q 442 157 439 181 q 503 58 449 85 q 615 39 529 44 q 715 21 696 33 q 731 -42 735 8 z "},"u":{"ha":854,"x_min":-6,"x_max":803,"o":"m 753 53 q 717 -17 751 31 q 663 -75 682 -65 q 588 -112 639 -92 q 408 -118 551 -118 q 121 -75 207 -118 q -6 171 -6 -12 q -4 226 -6 210 q 22 326 3 311 q 107 349 32 335 q 165 399 161 360 l 183 599 q 213 638 186 624 q 265 653 239 653 q 314 640 293 653 q 338 600 340 625 l 299 156 q 337 79 296 119 q 415 38 378 39 q 489 36 447 36 q 547 35 561 36 q 600 69 597 39 l 646 599 q 676 640 649 625 q 728 653 699 653 q 776 640 756 653 q 800 600 803 625 l 753 53 z "},"v":{"ha":838,"x_min":10,"x_max":799,"o":"m 790 483 q 790 433 790 469 q 778 368 789 389 q 596 135 768 347 q 465 -32 560 88 q 351 -118 396 -118 q 233 1 310 -118 q 151 135 211 39 q 75 246 150 138 q 10 367 28 314 q 19 483 11 386 q 31 597 25 546 q 111 653 47 653 q 160 640 139 653 q 183 600 186 625 l 167 414 q 310 185 167 406 q 399 288 338 214 q 474 383 472 375 l 492 599 q 565 651 496 642 q 651 653 575 653 q 771 646 750 653 q 799 592 799 636 q 796 572 799 601 q 790 483 793 539 z "},"w":{"ha":1322,"x_min":-6,"x_max":1268,"o":"m 1244 381 q 1215 140 1229 194 q 1099 -47 1186 24 q 892 -118 1011 -118 q 772 -92 833 -118 q 672 -21 707 -64 q 508 -107 590 -87 q 351 -118 461 -118 q 97 -58 182 -118 q -6 174 -6 13 q -4 226 -6 210 q 22 326 3 313 q 107 349 31 333 q 165 399 161 360 l 183 599 q 213 638 186 624 q 265 653 239 653 q 314 640 293 653 q 338 600 340 625 l 299 156 q 337 80 296 119 q 415 38 378 40 q 443 36 433 36 q 538 65 494 36 q 597 143 582 94 q 607 157 601 143 l 646 599 q 676 640 649 625 q 728 653 699 653 q 776 640 756 653 q 800 600 803 625 l 761 156 q 799 80 758 119 q 878 38 840 40 q 906 36 896 36 q 1001 65 958 36 q 1060 143 1044 93 q 1071 157 1065 143 l 1110 599 q 1192 653 1114 653 q 1263 594 1268 653 l 1244 381 z "},"x":{"ha":1007,"x_min":-25,"x_max":918,"o":"m 907 54 l 896 -60 q 815 -118 879 -118 q 767 -104 790 -118 q 740 -64 738 -87 l 760 156 q 749 178 760 165 q 731 190 739 190 l 301 190 l 279 -65 q 206 -117 275 -108 q 121 -118 194 -118 q 10 -114 21 -118 q -25 -31 -25 -101 q -14 113 -25 -7 q -3 224 -7 188 q 24 326 8 319 q 113 347 32 331 q 165 399 161 357 l 183 599 q 213 638 186 624 q 265 653 239 653 q 314 640 293 653 q 338 600 340 625 l 315 344 l 624 344 l 646 599 q 676 640 649 625 q 728 653 699 653 q 778 640 756 653 q 803 600 806 625 l 781 343 q 917 158 918 272 q 907 54 917 153 z "},"y":{"ha":853,"x_min":8,"x_max":788,"o":"m 768 74 q 747 -146 763 -3 q 560 -393 701 -335 q 297 -425 482 -425 q 252 -426 282 -425 q 207 -428 222 -428 q 136 -414 157 -428 q 114 -349 110 -396 q 141 -287 118 -304 q 211 -269 164 -271 q 303 -269 211 -269 q 387 -227 339 -269 q 439 -150 435 -185 l 443 -117 l 271 -117 q 149 -82 228 -117 q 8 185 8 -21 q 24 382 8 189 q 42 596 28 439 q 125 654 47 654 q 174 642 153 654 q 197 601 200 626 l 158 158 q 165 143 160 156 q 203 77 160 117 q 274 38 246 38 l 456 38 l 506 600 q 588 654 510 654 q 636 642 615 654 q 660 601 663 626 l 642 400 q 668 354 639 367 q 728 343 681 349 q 772 328 764 339 q 786 288 788 307 q 768 74 778 201 z "},"z":{"ha":836,"x_min":-28,"x_max":788,"o":"m 744 -42 q 725 -90 742 -67 q 683 -118 706 -118 l 21 -118 q -28 -47 -28 -118 l -24 0 q 197 319 -1 251 q 299 344 271 344 l 590 344 q 631 422 624 344 q 603 499 638 499 l 75 499 q 26 576 21 499 q 99 653 32 653 l 617 653 q 669 639 640 653 q 788 468 788 582 q 631 204 788 261 q 586 190 593 190 l 429 190 q 345 147 394 190 q 292 69 296 103 l 288 36 l 697 36 q 735 10 722 36 q 744 -42 747 -15 z "},"{":{"ha":583,"x_min":-4,"x_max":640,"o":"m 528 -196 q 506 -249 525 -225 q 458 -272 488 -272 q 360 -249 417 -272 q 143 -6 211 -186 q 85 296 101 107 q 50 329 83 315 q 11 347 13 346 q 0 422 -4 368 q 25 496 4 483 q 65 513 31 500 q 101 539 92 522 q 156 718 114 586 q 322 988 204 864 q 581 1117 446 1117 q 635 1039 640 1117 q 600 978 632 994 q 546 942 557 954 q 418 644 482 867 q 332 517 401 586 q 206 424 267 453 q 314 324 261 388 q 381 197 375 251 q 392 89 383 167 q 468 -114 410 -58 q 514 -136 486 -119 q 528 -196 531 -154 z "},"|":{"ha":290,"x_min":-60,"x_max":265,"o":"m 144 -272 l -60 -272 l 61 1115 l 265 1115 l 144 -272 z "},"}":{"ha":583,"x_min":-57,"x_max":586,"o":"m -54 -196 q -42 -249 -57 -225 q 1 -272 -28 -272 q 104 -249 43 -272 q 364 -6 264 -186 q 474 296 425 104 q 513 328 479 317 q 557 347 551 342 q 581 422 576 368 q 569 496 586 483 q 532 513 565 500 q 500 539 507 522 q 478 718 496 589 q 358 988 451 869 q 122 1117 257 1117 q 54 1039 61 1117 q 78 978 50 994 q 126 942 119 953 q 201 644 175 868 q 267 518 208 589 q 375 424 321 451 q 251 325 313 386 q 163 197 178 253 q 131 85 136 104 q 89 -22 110 18 q 19 -114 58 -82 q -31 -136 0 -119 q -54 -196 -50 -154 z "},"~":{"ha":690,"x_min":171,"x_max":750,"o":"m 174 1082 q 193 1030 171 1050 q 247 1010 215 1010 q 315 1044 282 1010 q 388 1118 381 1114 q 450 1044 404 1106 q 514 1010 476 1010 q 626 1079 561 1010 q 725 1188 653 1110 q 747 1240 744 1208 q 728 1291 750 1272 q 674 1310 706 1310 q 596 1269 640 1310 q 533 1201 594 1268 q 469 1278 517 1218 q 406 1310 444 1310 q 281 1225 368 1310 q 217 1160 233 1181 q 174 1082 176 1113 z "},"¡":{"ha":392,"x_min":-40,"x_max":349,"o":"m 314 482 q 274 578 319 539 q 171 617 229 617 q 61 578 111 617 q 6 481 11 539 l -35 18 q 4 -82 -40 -43 q 107 -118 44 -118 q 216 -78 163 -118 q 274 17 269 -37 l 314 482 m 342 807 q 310 919 349 876 q 201 961 271 961 q 86 918 133 961 q 33 807 39 875 q 67 695 28 738 q 175 653 106 653 q 290 695 244 653 q 342 807 335 738 z "},"¨":{"ha":635,"x_min":222,"x_max":683,"o":"m 424 1165 q 390 1094 419 1121 q 317 1067 361 1067 q 247 1094 272 1067 q 226 1165 222 1121 q 260 1237 231 1210 q 333 1264 289 1264 q 403 1237 378 1264 q 424 1165 428 1210 m 679 1165 q 646 1094 675 1121 q 572 1067 617 1067 q 503 1094 528 1067 q 482 1165 478 1121 q 515 1237 486 1210 q 589 1264 544 1264 q 658 1237 633 1264 q 679 1165 683 1210 z "},"©":{"ha":1140,"x_min":-3,"x_max":1082,"o":"m 493 -118 q 138 19 278 -118 q -3 372 -3 157 q 174 785 -3 608 q 588 961 351 961 q 942 824 803 961 q 1082 471 1082 686 q 910 54 1082 226 q 493 -118 738 -118 m 928 456 q 827 708 928 608 q 574 807 726 807 q 277 683 401 807 q 153 388 153 560 q 253 135 153 235 q 507 36 354 36 q 803 160 679 36 q 928 456 928 283 m 685 254 q 519 190 608 190 q 362 258 424 190 q 308 422 300 326 q 390 585 317 517 q 560 653 464 653 q 714 589 646 653 q 594 483 600 483 q 571 491 588 483 q 547 499 554 499 q 490 476 515 499 q 463 422 465 454 q 481 367 460 390 q 533 344 501 344 q 558 352 540 344 q 583 360 576 360 q 685 254 589 360 z "},"«":{"ha":764,"x_min":0,"x_max":700,"o":"m 332 306 q 221 193 293 268 l 104 301 q 0 419 39 363 q 256 650 82 500 q 353 538 290 613 q 218 419 308 497 l 332 306 m 679 306 q 568 193 640 268 l 451 301 q 347 419 386 363 q 603 650 429 500 q 700 538 638 613 q 565 419 656 497 l 679 306 z "},"®":{"ha":1140,"x_min":-3,"x_max":1082,"o":"m 493 -118 q 138 19 278 -118 q -3 372 -3 157 q 174 785 -3 608 q 588 961 351 961 q 942 824 803 961 q 1082 471 1082 686 q 910 54 1082 226 q 493 -118 738 -118 m 928 456 q 827 708 928 608 q 574 807 726 807 q 277 683 401 807 q 153 388 153 560 q 253 135 153 235 q 507 36 354 36 q 803 160 679 36 q 928 456 928 283 m 776 476 q 735 376 772 421 q 697 332 725 364 q 751 192 694 313 l 578 192 q 522 319 561 235 l 456 319 q 444 192 444 260 l 289 192 l 329 653 l 624 653 q 735 598 689 653 q 776 476 782 543 m 647 476 q 636 507 649 489 q 613 524 624 525 l 472 524 l 464 428 l 594 428 q 629 443 613 428 q 647 476 646 458 z "},"¯":{"ha":854,"x_min":-6,"x_max":778,"o":"m 778 35 l 7 35 l -6 -118 l 764 -118 l 778 35 z "},"ˉ":{"ha":854,"x_min":-6,"x_max":778,"o":"m 778 35 l 7 35 l -6 -118 l 764 -118 l 778 35 z "},"°":{"ha":254,"x_min":1,"x_max":276,"o":"m 6 971 q 52 1065 10 1026 q 150 1104 94 1104 q 241 1065 206 1104 q 272 971 276 1026 q 225 876 268 915 q 126 838 182 838 q 36 876 71 838 q 6 971 1 915 m 99 975 q 139 931 94 931 q 188 975 183 931 q 147 1018 192 1018 q 99 975 103 1018 z "},"²":{"ha":364,"x_min":-14,"x_max":290,"o":"m 268 838 q 247 785 264 785 l 3 785 q -10 843 -14 785 q 51 960 -3 933 q 89 971 74 971 l 196 971 q 220 983 207 971 q 236 1007 233 996 q 238 1017 238 1011 q 203 1063 240 1054 l 97 1063 q 86 1044 89 1060 q 77 1021 82 1025 q 60 1017 72 1017 q 39 1044 38 1017 q 85 1104 42 1092 q 151 1110 104 1110 q 219 1107 206 1110 q 283 1017 290 1092 q 258 956 281 982 q 200 926 235 931 q 194 925 199 926 q 189 924 190 924 l 129 924 q 103 910 119 924 q 88 888 88 897 l 82 832 l 219 832 q 225 868 225 865 q 250 890 232 890 q 271 871 269 890 q 268 838 271 871 z "},"³":{"ha":258,"x_min":-10,"x_max":276,"o":"m 271 879 q 219 800 265 821 q 122 788 193 788 q 56 790 68 788 q -1 838 13 800 q -8 876 -10 861 q 17 893 -7 893 q 42 861 35 893 q 71 833 46 839 l 104 833 q 178 879 174 833 q 178 889 179 888 q 169 911 175 901 q 144 926 151 926 l 85 926 q 69 949 68 926 q 88 972 72 972 l 149 972 q 176 988 163 972 q 190 1018 190 1004 q 124 1065 194 1065 q 92 1064 96 1065 q 56 1033 72 1061 q 26 1004 39 1004 q 6 1022 4 1004 q 15 1054 7 1038 q 128 1111 43 1111 q 236 1018 244 1111 q 217 967 233 988 q 271 879 276 943 z "},"¹":{"ha":104,"x_min":4,"x_max":125,"o":"m 99 803 q 51 788 97 788 q 6 804 4 788 l 19 956 q 26 967 19 964 q 53 974 29 969 q 68 989 68 976 l 78 1094 q 103 1111 79 1111 q 124 1094 125 1111 l 99 803 z "},"»":{"ha":769,"x_min":-10,"x_max":689,"o":"m 338 306 q 428 193 368 268 l 564 301 q 689 419 639 363 q 474 650 621 500 q 357 538 432 613 q 471 419 394 497 l 338 306 m -10 306 q 81 193 21 268 l 217 301 q 342 419 292 363 q 126 650 274 500 q 10 538 85 613 q 124 419 47 497 l -10 306 z "},"¼":{"ha":536,"x_min":-31,"x_max":447,"o":"m 424 986 l 3 131 l -31 251 l 390 1107 l 424 986 m 147 790 q 100 774 146 774 q 54 790 53 774 l 68 942 q 100 960 68 954 q 117 975 117 963 l 126 1081 q 151 1097 128 1097 q 172 1082 174 1097 l 147 790 m 446 269 q 399 246 443 246 q 388 126 399 242 q 340 107 386 107 q 294 124 293 107 l 306 246 l 254 246 q 218 256 235 246 q 175 331 175 282 q 181 415 175 400 q 206 431 186 431 q 228 415 229 431 l 221 328 l 222 324 q 234 303 221 315 q 256 292 247 292 l 356 292 l 367 414 q 392 431 368 431 q 413 415 414 431 l 403 293 l 432 290 q 446 269 447 286 z "},"½":{"ha":542,"x_min":-31,"x_max":457,"o":"m 424 986 l 3 131 l -31 251 l 390 1107 l 424 986 m 147 790 q 100 774 146 774 q 54 790 53 774 l 68 942 q 100 960 68 954 q 117 975 117 963 l 126 1081 q 151 1097 128 1097 q 172 1082 174 1097 l 147 790 m 439 160 q 418 107 433 107 l 172 107 q 161 165 156 107 q 171 226 165 211 q 206 273 181 253 q 260 293 232 293 l 365 293 q 390 306 376 293 q 407 329 404 318 q 408 339 407 335 q 374 385 411 376 l 268 385 q 257 367 260 382 q 247 343 253 347 q 231 339 242 339 q 210 367 207 339 q 256 426 214 414 q 322 431 269 431 q 393 428 374 431 q 440 397 424 424 q 454 339 457 371 q 428 278 451 304 q 369 249 404 253 l 365 247 q 358 246 361 246 l 299 246 q 274 233 289 246 q 257 210 258 219 l 253 154 l 390 154 q 419 213 399 213 q 442 193 440 213 q 439 160 442 189 z "},"¾":{"ha":536,"x_min":-60,"x_max":447,"o":"m 424 986 l 3 131 l -31 251 l 390 1107 l 424 986 m 222 865 q 171 786 217 807 q 74 774 143 774 q 7 776 19 774 q -42 808 -24 783 q -57 863 -60 832 q -32 879 -56 879 q -7 847 -14 879 q 22 819 -3 825 l 54 819 q 129 865 125 819 l 129 875 q 121 897 126 888 q 94 913 103 913 l 35 913 q 21 935 19 913 q 39 958 24 958 l 99 958 q 124 971 110 958 q 140 994 138 983 q 142 1004 140 1000 q 75 1051 146 1051 q 43 1050 47 1051 q 6 1019 24 1047 q -22 990 -11 990 q -43 1008 -46 990 q -33 1040 -43 1022 q 78 1097 -4 1097 q 188 1004 196 1097 q 168 953 185 974 q 222 865 228 929 m 446 269 q 399 246 443 246 q 388 126 399 242 q 340 107 386 107 q 294 124 293 107 l 306 246 l 254 246 q 218 256 235 246 q 175 331 175 282 q 181 415 175 400 q 206 431 186 431 q 228 415 229 431 l 221 328 l 222 324 q 234 303 221 315 q 256 292 247 292 l 356 292 l 367 414 q 392 431 368 431 q 413 415 414 431 l 403 293 l 432 290 q 446 269 447 286 z "},"¿":{"ha":799,"x_min":-26,"x_max":738,"o":"m -18 219 q 70 385 -10 311 q 242 458 150 458 l 379 458 q 399 517 388 501 q 453 539 415 539 q 510 482 510 539 q 485 347 510 369 q 429 333 463 333 l 371 333 q 282 299 326 333 q 235 219 238 264 q 260 145 232 179 q 328 107 288 111 q 453 106 340 106 q 479 104 435 106 q 528 103 501 103 q 576 107 563 104 q 608 151 603 113 q 625 214 615 201 q 678 232 639 232 q 729 211 717 232 q 735 154 738 196 q 679 35 731 90 q 565 -21 628 -21 l 208 -21 q 43 52 113 -21 q -18 219 -26 125 m 343 736 q 386 828 349 793 q 481 863 424 863 q 569 828 538 863 q 596 736 601 793 q 553 644 590 679 q 458 610 515 610 q 370 645 403 610 q 343 736 338 681 z "},"À":{"ha":1004,"x_min":-62,"x_max":897,"o":"m 885 131 q 867 -64 876 36 q 786 -118 861 -118 q 736 -102 763 -118 q 711 -64 710 -86 l 744 311 q 734 332 744 319 q 715 344 724 344 l 286 344 l 250 -65 q 178 -117 246 -108 q 92 -118 167 -118 q 1 -115 18 -118 q -58 -64 -62 -104 l -14 444 q 49 494 -11 483 q 128 515 119 508 q 149 553 147 533 q 178 733 154 614 q 299 899 213 836 q 494 961 386 961 q 689 889 607 961 q 772 707 771 817 q 777 692 772 704 q 781 672 782 679 l 765 497 q 781 485 771 493 q 897 286 897 458 q 885 131 897 279 m 608 500 l 625 682 q 611 728 625 699 q 585 769 597 757 q 515 806 565 789 q 482 807 511 807 q 378 769 431 807 q 317 681 321 729 l 300 500 l 608 500 m 588 1157 l 596 1072 q 525 1000 596 1000 q 444 1054 461 1000 q 433 1153 442 1061 l 425 1239 q 497 1308 425 1308 q 578 1251 561 1308 q 588 1157 578 1249 z "},"Á":{"ha":1004,"x_min":-62,"x_max":897,"o":"m 885 131 q 867 -64 876 36 q 786 -118 861 -118 q 736 -102 763 -118 q 711 -64 710 -86 l 744 311 q 734 332 744 319 q 715 344 724 344 l 286 344 l 250 -65 q 178 -117 246 -108 q 92 -118 167 -118 q 1 -115 18 -118 q -58 -64 -62 -104 l -14 444 q 49 494 -11 483 q 128 515 119 508 q 149 553 147 533 q 178 733 154 614 q 299 899 213 836 q 494 961 386 961 q 689 889 607 961 q 772 707 771 817 q 777 692 772 704 q 781 672 782 679 l 765 497 q 781 485 771 493 q 897 286 897 458 q 885 131 897 279 m 608 500 l 625 682 q 611 728 625 699 q 585 769 597 757 q 515 806 565 789 q 482 807 511 807 q 378 769 431 807 q 317 681 321 729 l 300 500 l 608 500 m 434 1153 q 422 1107 434 1153 q 410 1050 410 1061 q 469 1000 410 1000 q 560 1054 533 1000 q 590 1157 567 1067 q 613 1260 613 1247 q 551 1308 613 1308 q 460 1251 488 1308 q 434 1153 458 1246 z "},"Â":{"ha":1004,"x_min":-64,"x_max":894,"o":"m 882 131 q 864 -64 874 36 q 783 -118 858 -118 q 733 -102 760 -118 q 708 -64 707 -86 l 742 311 q 731 332 742 319 q 713 344 721 344 l 283 344 l 247 -65 q 175 -117 243 -108 q 89 -118 164 -118 q -1 -115 17 -118 q -60 -64 -64 -106 l -15 444 q 46 494 -12 483 q 125 515 118 508 q 146 553 144 533 q 175 733 151 614 q 297 899 210 836 q 492 961 383 961 q 686 889 604 961 q 769 707 768 817 q 774 692 769 704 q 778 672 779 679 l 763 497 q 778 485 768 493 q 894 286 894 458 q 882 131 894 279 m 606 500 l 622 682 q 608 728 622 699 q 582 769 594 757 q 513 806 563 789 q 479 807 508 807 q 375 769 428 807 q 314 681 318 729 l 297 500 l 606 500 m 382 1031 q 279 1131 347 1065 l 397 1257 q 525 1372 467 1328 q 735 1136 600 1297 q 614 1031 694 1099 q 560 1092 597 1051 q 506 1154 522 1133 l 382 1031 z "},"Ã":{"ha":1004,"x_min":-62,"x_max":897,"o":"m 885 131 q 867 -64 876 36 q 786 -118 861 -118 q 736 -102 763 -118 q 711 -64 710 -86 l 744 311 q 734 332 744 319 q 715 344 724 344 l 286 344 l 250 -65 q 178 -117 246 -108 q 92 -118 167 -118 q 1 -115 18 -118 q -58 -64 -62 -104 l -14 444 q 49 494 -11 483 q 128 515 119 508 q 149 553 147 533 q 178 733 154 619 q 299 899 213 836 q 494 961 386 961 q 689 889 607 961 q 772 707 771 817 q 777 692 772 704 q 781 672 782 679 l 765 497 q 781 485 771 493 q 897 286 897 458 q 885 131 897 279 m 608 500 l 625 682 q 611 728 625 699 q 585 769 597 757 q 515 806 565 789 q 482 807 511 807 q 378 769 431 807 q 317 681 321 729 l 300 500 l 608 500 m 224 1082 q 243 1030 221 1050 q 297 1010 265 1010 q 365 1044 333 1010 q 436 1118 429 1114 q 500 1044 456 1103 q 564 1010 526 1010 q 675 1079 607 1010 q 774 1188 706 1111 q 796 1240 792 1204 q 776 1291 799 1272 q 722 1310 754 1310 q 646 1269 689 1310 q 583 1201 615 1235 q 519 1278 569 1215 q 456 1310 494 1310 q 331 1225 418 1310 q 267 1160 283 1179 q 224 1082 226 1113 z "},"Ä":{"ha":1004,"x_min":-60,"x_max":899,"o":"m 888 131 q 868 -64 879 21 q 788 -118 861 -118 q 738 -103 763 -118 q 714 -64 713 -87 l 746 311 q 737 332 747 319 q 718 344 726 344 l 289 344 l 253 -65 q 179 -117 249 -108 q 94 -118 168 -118 q 3 -115 21 -118 q -56 -64 -60 -106 l -11 444 q 50 494 -8 483 q 129 515 122 508 q 150 553 149 533 q 181 733 156 613 q 301 899 213 836 q 497 961 389 961 q 691 890 610 961 q 774 707 772 818 q 778 690 774 703 q 783 672 783 676 l 768 497 q 783 485 772 493 q 899 286 899 458 q 888 131 899 267 m 610 500 l 626 682 q 613 727 628 696 q 588 769 599 758 q 518 806 569 788 q 483 807 511 807 q 379 769 433 807 q 318 681 322 728 l 303 500 l 610 500 m 492 1165 q 458 1094 488 1121 q 383 1067 428 1067 q 315 1094 340 1067 q 293 1165 289 1122 q 327 1237 297 1210 q 401 1264 357 1264 q 470 1236 444 1264 q 492 1165 496 1208 m 747 1165 q 713 1094 743 1121 q 639 1067 683 1067 q 570 1094 596 1067 q 549 1165 544 1122 q 583 1237 553 1210 q 657 1264 613 1264 q 726 1236 700 1264 q 747 1165 751 1208 z "},"Å":{"ha":1004,"x_min":-58,"x_max":901,"o":"m 889 131 q 869 -64 882 47 q 790 -118 864 -118 q 742 -104 765 -118 q 715 -64 714 -87 l 747 311 q 738 332 749 319 q 719 344 728 344 l 290 344 l 254 -65 q 182 -117 250 -108 q 96 -118 171 -118 q 6 -115 22 -118 q -54 -64 -58 -104 l -10 444 q 53 494 -7 483 q 132 515 124 508 q 153 553 151 533 q 182 733 158 619 q 302 899 214 836 q 499 961 390 961 q 692 892 611 961 q 776 707 774 818 q 781 690 776 703 q 785 672 785 676 l 769 497 q 785 485 775 493 q 901 286 901 458 q 889 131 901 274 m 613 500 l 628 682 q 615 727 629 697 q 589 769 601 757 q 519 806 569 789 q 485 807 513 807 q 382 769 435 807 q 321 681 325 729 l 304 500 l 613 500 m 396 1110 q 435 1188 400 1156 q 517 1221 471 1221 q 592 1188 563 1221 q 618 1110 622 1156 q 578 1031 614 1064 q 497 999 543 999 q 422 1031 451 999 q 396 1110 392 1064 m 474 1113 q 507 1075 469 1075 q 547 1113 544 1075 q 514 1150 550 1150 q 474 1113 476 1150 z "},"Æ":{"ha":1215,"x_min":-47,"x_max":1219,"o":"m 1132 -42 q 1108 -101 1128 -90 q 894 -118 1081 -118 q 690 -112 721 -118 q 597 -47 644 -104 q 554 54 550 10 l 581 344 l 301 344 l 265 -65 q 193 -117 261 -108 q 107 -118 182 -118 q 17 -115 33 -118 q -43 -64 -47 -104 l 1 444 q 64 494 4 483 q 143 515 136 507 q 193 739 167 542 q 324 903 215 836 q 503 961 418 961 l 1156 961 q 1213 885 1219 961 q 1194 835 1210 857 q 1151 808 1176 808 l 774 808 l 747 499 l 1125 499 q 1163 474 1150 499 q 1172 422 1175 449 q 1154 372 1169 394 q 1111 344 1136 344 l 735 344 l 710 68 q 721 48 710 60 q 740 36 732 36 l 1085 36 q 1122 10 1110 36 q 1132 -42 1135 -15 m 593 500 l 619 807 l 479 807 q 388 766 439 807 q 332 686 336 725 l 315 500 l 593 500 z "},"È":{"ha":946,"x_min":-35,"x_max":958,"o":"m 869 -42 q 851 -92 867 -69 q 808 -118 833 -118 l 229 -118 q 167 -106 210 -118 q 107 -83 124 -93 q -1 19 32 -37 q -35 164 -35 76 q -25 303 -35 175 q -19 390 -22 347 q -1 469 -14 456 q 67 499 13 490 q 119 511 108 504 q 149 553 144 522 q 158 644 154 599 q 178 733 165 697 q 329 918 224 864 q 567 964 417 964 q 626 963 586 964 q 685 961 665 961 l 899 961 q 951 885 958 961 q 933 835 949 858 q 890 807 915 807 l 449 807 q 367 761 415 807 q 315 682 318 715 l 300 499 l 863 499 q 901 473 888 499 q 911 422 914 447 q 892 372 908 396 q 849 344 872 344 l 286 344 l 269 156 l 278 142 q 314 76 271 115 q 386 36 357 36 l 822 36 q 860 10 849 36 q 869 -42 872 -15 m 588 1157 l 596 1072 q 525 1000 596 1000 q 444 1054 461 1000 q 433 1153 442 1061 l 425 1239 q 497 1308 425 1308 q 578 1251 561 1308 q 588 1157 578 1249 z "},"É":{"ha":946,"x_min":-35,"x_max":958,"o":"m 869 -42 q 851 -92 867 -69 q 808 -118 833 -118 l 229 -118 q 167 -106 210 -118 q 107 -83 124 -93 q -1 19 32 -37 q -35 164 -35 76 q -25 303 -35 175 q -19 390 -22 347 q -1 469 -14 456 q 67 499 13 490 q 119 511 108 504 q 149 553 144 522 q 158 644 154 599 q 178 733 165 697 q 329 918 224 864 q 567 964 417 964 q 626 963 586 964 q 685 961 665 961 l 899 961 q 951 885 958 961 q 933 835 949 858 q 890 807 915 807 l 449 807 q 367 761 415 807 q 315 682 318 715 l 300 499 l 863 499 q 901 473 888 499 q 911 422 914 447 q 892 372 908 396 q 849 344 872 344 l 286 344 l 269 156 l 278 142 q 314 76 271 115 q 386 36 357 36 l 822 36 q 860 10 849 36 q 869 -42 872 -15 m 434 1153 q 422 1107 434 1153 q 410 1050 410 1061 q 469 1000 410 1000 q 560 1054 533 1000 q 590 1157 567 1067 q 613 1260 613 1247 q 551 1308 613 1308 q 460 1251 488 1308 q 434 1153 458 1246 z "},"Ê":{"ha":946,"x_min":-37,"x_max":956,"o":"m 867 -42 q 849 -92 864 -69 q 806 -118 831 -118 l 226 -118 q 164 -106 207 -118 q 104 -83 121 -93 q -4 19 29 -37 q -37 164 -37 76 q -28 303 -37 175 q -22 390 -25 347 q -4 469 -17 456 q 64 499 10 490 q 117 511 106 504 q 146 553 142 522 q 156 644 151 599 q 175 733 163 697 q 326 918 221 864 q 564 964 414 964 q 623 963 583 964 q 682 961 663 961 l 896 961 q 949 885 956 961 q 931 835 946 858 q 888 807 913 807 l 446 807 q 364 761 413 807 q 313 682 315 715 l 297 499 l 860 499 q 898 473 885 499 q 908 422 911 447 q 889 372 906 396 q 846 344 869 344 l 283 344 l 267 156 l 275 142 q 311 76 268 115 q 383 36 354 36 l 819 36 q 858 10 846 36 q 867 -42 869 -15 m 382 1031 q 279 1131 347 1065 l 397 1257 q 525 1372 467 1328 q 735 1136 600 1297 q 614 1031 694 1099 q 560 1092 597 1051 q 506 1154 522 1133 l 382 1031 z "},"Ë":{"ha":946,"x_min":-33,"x_max":960,"o":"m 872 -42 q 852 -92 871 -65 q 811 -118 833 -118 l 231 -118 q 168 -106 210 -118 q 108 -83 126 -94 q -33 164 -33 3 q -24 303 -33 175 q -17 390 -21 347 q 1 472 -11 454 q 68 499 14 490 q 122 510 110 504 q 150 553 146 522 q 161 644 156 599 q 181 733 168 697 q 331 919 228 865 q 569 964 418 964 q 628 963 589 964 q 688 961 668 961 l 901 961 q 953 885 960 961 q 935 835 950 858 q 892 807 917 807 l 450 807 q 369 762 417 807 q 318 682 321 717 l 301 499 l 865 499 q 902 473 889 499 q 913 422 915 447 q 894 372 910 394 q 851 344 876 344 l 289 344 l 272 156 l 279 142 q 317 76 274 115 q 389 36 361 36 l 824 36 q 863 8 849 36 q 872 -42 875 -14 m 492 1165 q 458 1094 488 1121 q 383 1067 428 1067 q 315 1094 340 1067 q 293 1165 289 1122 q 327 1237 297 1210 q 401 1264 357 1264 q 470 1236 444 1264 q 492 1165 496 1208 m 747 1165 q 713 1094 743 1121 q 639 1067 683 1067 q 570 1094 596 1067 q 549 1165 544 1122 q 583 1237 553 1210 q 657 1264 613 1264 q 726 1236 700 1264 q 747 1165 751 1208 z "},"Ì":{"ha":817,"x_min":-58,"x_max":808,"o":"m 721 -42 q 701 -92 719 -65 q 660 -118 682 -118 l -8 -118 q -47 -92 -35 -118 q -56 -42 -58 -69 q -37 8 -53 -14 q 6 36 -19 36 l 260 36 l 326 807 l 74 807 q 35 835 49 807 q 25 885 22 858 q 97 961 31 961 l 744 961 q 801 885 808 961 q 783 835 799 858 q 740 807 765 807 l 481 807 l 458 553 q 497 506 456 519 q 568 492 500 504 q 604 446 607 481 l 568 40 l 685 29 q 721 -42 726 19 m 490 1157 l 499 1072 q 428 1000 499 1000 q 347 1054 364 1000 q 336 1153 344 1061 l 328 1239 q 400 1308 328 1308 q 481 1251 464 1308 q 490 1157 481 1249 z "},"Í":{"ha":817,"x_min":-58,"x_max":808,"o":"m 721 -42 q 701 -92 719 -65 q 660 -118 682 -118 l -8 -118 q -47 -92 -35 -118 q -56 -42 -58 -69 q -37 8 -53 -14 q 6 36 -19 36 l 260 36 l 326 807 l 74 807 q 35 835 49 807 q 25 885 22 858 q 97 961 31 961 l 744 961 q 801 885 808 961 q 783 835 799 858 q 740 807 765 807 l 481 807 l 458 553 q 497 506 456 519 q 568 492 500 504 q 604 446 607 481 l 568 40 l 685 29 q 721 -42 726 19 m 378 1153 q 366 1107 378 1153 q 354 1050 354 1061 q 414 1000 354 1000 q 504 1054 478 1000 q 534 1157 511 1067 q 557 1260 557 1247 q 496 1308 557 1308 q 404 1251 432 1308 q 378 1153 403 1246 z "},"Î":{"ha":817,"x_min":-61,"x_max":806,"o":"m 718 -42 q 698 -92 717 -65 q 657 -118 679 -118 l -11 -118 q -50 -92 -37 -118 q -58 -42 -61 -69 q -40 8 -56 -14 q 3 36 -22 36 l 257 36 l 324 807 l 71 807 q 32 835 46 807 q 22 885 19 858 q 94 961 28 961 l 742 961 q 799 885 806 961 q 781 835 796 858 q 738 807 763 807 l 478 807 l 456 553 q 494 506 453 519 q 565 492 497 504 q 601 446 604 481 l 565 40 l 683 29 q 718 -42 724 19 m 311 1031 q 208 1131 276 1065 l 326 1257 q 454 1372 396 1328 q 664 1136 529 1297 q 543 1031 624 1099 q 489 1092 526 1051 q 435 1154 451 1133 l 311 1031 z "},"Ï":{"ha":817,"x_min":-60,"x_max":811,"o":"m 722 -42 q 704 -92 719 -69 q 661 -118 686 -118 l -6 -118 q -54 -42 -60 -118 q -35 10 -53 -15 q 7 36 -17 36 l 261 36 l 329 807 l 75 807 q 36 835 49 807 q 28 885 25 857 q 99 961 33 961 l 746 961 q 804 885 811 961 q 784 833 801 860 q 743 807 767 807 l 483 807 l 461 553 q 500 506 458 519 q 569 492 503 504 q 606 446 608 481 l 571 40 l 688 29 q 722 -42 728 19 m 408 1165 q 374 1094 404 1121 q 300 1067 344 1067 q 231 1094 257 1067 q 210 1165 206 1122 q 244 1237 214 1210 q 318 1264 274 1264 q 387 1236 361 1264 q 408 1165 413 1208 m 664 1165 q 630 1094 660 1121 q 556 1067 600 1067 q 487 1094 513 1067 q 465 1165 461 1122 q 499 1237 469 1210 q 574 1264 529 1264 q 642 1236 617 1264 q 664 1165 668 1208 z "},"Ñ":{"ha":1010,"x_min":-62,"x_max":933,"o":"m 868 -65 q 839 -104 865 -90 q 786 -118 813 -118 q 738 -104 760 -118 q 714 -64 711 -89 l 779 681 q 743 760 782 717 q 668 806 704 803 q 515 807 650 807 q 489 809 533 807 q 440 811 444 811 q 324 775 326 811 l 251 -65 q 178 -117 247 -108 q 92 -118 167 -118 q 1 -115 18 -118 q -58 -64 -62 -104 l -14 444 q 8 481 -12 468 q 96 504 24 490 q 150 554 146 514 l 171 789 q 206 857 172 811 q 261 918 239 903 q 338 954 304 949 q 521 961 376 961 q 729 951 689 961 q 908 796 854 921 q 924 734 914 782 q 932 672 933 686 l 868 -65 m 224 1082 q 243 1030 221 1050 q 297 1010 265 1010 q 365 1044 333 1010 q 436 1118 429 1114 q 500 1044 456 1103 q 564 1010 526 1010 q 675 1079 607 1010 q 774 1188 706 1111 q 796 1240 792 1204 q 776 1291 799 1272 q 722 1310 754 1310 q 646 1269 689 1310 q 583 1201 615 1235 q 519 1278 569 1215 q 456 1310 494 1310 q 331 1225 418 1310 q 267 1160 283 1179 q 224 1082 226 1113 z "},"Ò":{"ha":1011,"x_min":-31,"x_max":936,"o":"m 889 172 q 843 47 885 122 q 629 -107 775 -75 q 406 -118 578 -118 q 93 -72 179 -118 q -31 196 -31 -7 q -25 303 -31 225 q -19 392 -24 328 q 8 481 -14 468 q 96 501 21 490 q 149 553 146 508 q 285 889 164 794 q 572 961 378 961 q 763 942 708 961 q 917 769 871 903 q 932 672 936 715 l 889 172 m 733 161 l 779 682 q 766 727 781 696 q 740 769 751 758 q 669 806 713 797 q 558 807 663 807 q 456 807 458 807 q 367 760 408 800 q 317 681 319 715 l 271 157 q 308 81 268 119 q 386 38 347 43 q 493 36 396 36 l 542 36 q 578 38 539 36 q 601 38 578 38 q 683 83 635 38 q 733 161 731 128 m 588 1157 l 596 1072 q 525 1000 596 1000 q 444 1054 461 1000 q 433 1153 442 1061 l 425 1239 q 497 1308 425 1308 q 579 1251 561 1308 q 588 1157 579 1242 z "},"Ó":{"ha":1011,"x_min":-31,"x_max":936,"o":"m 889 172 q 843 47 885 122 q 629 -107 775 -75 q 406 -118 578 -118 q 93 -72 179 -118 q -31 196 -31 -7 q -25 303 -31 225 q -19 392 -24 328 q 8 481 -14 468 q 96 501 21 490 q 149 553 146 508 q 285 889 164 794 q 572 961 378 961 q 763 942 708 961 q 917 769 871 903 q 932 672 936 715 l 889 172 m 733 161 l 779 682 q 766 727 781 696 q 740 769 751 758 q 669 806 713 797 q 558 807 663 807 q 456 807 458 807 q 367 760 408 800 q 317 681 319 715 l 271 157 q 308 81 268 119 q 386 38 347 43 q 493 36 396 36 l 542 36 q 578 38 539 36 q 601 38 578 38 q 683 83 635 38 q 733 161 731 128 m 434 1153 q 422 1107 434 1153 q 410 1050 410 1061 q 471 1000 410 1000 q 560 1054 533 1000 q 590 1157 567 1067 q 613 1260 613 1247 q 551 1308 613 1308 q 460 1251 488 1308 q 434 1153 458 1246 z "},"Ô":{"ha":1011,"x_min":-33,"x_max":933,"o":"m 886 172 q 840 47 882 122 q 626 -107 772 -75 q 403 -118 575 -118 q 90 -72 176 -118 q -33 196 -33 -7 q -28 303 -33 225 q -22 392 -26 328 q 6 481 -17 468 q 93 501 18 490 q 146 553 143 508 q 282 889 161 794 q 569 961 375 961 q 760 942 706 961 q 914 769 868 903 q 929 672 933 715 l 886 172 m 731 161 l 776 682 q 763 727 778 696 q 738 769 749 758 q 667 806 710 797 q 556 807 660 807 q 453 807 456 807 q 364 760 406 800 q 314 681 317 715 l 268 157 q 305 81 265 119 q 383 38 344 43 q 490 36 393 36 l 539 36 q 575 38 536 36 q 599 38 575 38 q 680 83 632 38 q 731 161 728 128 m 382 1031 q 279 1131 347 1065 l 397 1257 q 525 1372 467 1328 q 735 1136 600 1297 q 614 1031 694 1099 q 561 1093 600 1049 l 506 1154 l 382 1031 z "},"Õ":{"ha":1011,"x_min":-31,"x_max":936,"o":"m 889 172 q 843 47 885 122 q 629 -107 775 -75 q 406 -118 578 -118 q 93 -72 179 -118 q -31 196 -31 -7 q -25 303 -31 225 q -19 392 -24 328 q 8 481 -14 468 q 96 501 21 490 q 149 553 146 508 q 285 889 164 794 q 572 961 378 961 q 763 942 708 961 q 917 769 871 903 q 932 672 936 715 l 889 172 m 733 161 l 779 682 q 766 727 781 697 q 739 769 751 757 q 669 806 710 799 q 558 807 661 807 q 456 807 458 807 q 367 760 408 800 q 317 681 319 715 l 271 157 q 308 81 268 119 q 386 38 347 43 q 493 36 396 36 l 542 36 q 578 38 539 36 q 601 38 578 38 q 683 83 635 38 q 733 161 731 128 m 224 1082 q 243 1030 221 1050 q 297 1010 265 1010 q 365 1044 333 1010 q 436 1118 429 1114 q 500 1044 456 1103 q 564 1010 526 1010 q 675 1079 610 1010 q 775 1188 703 1110 q 797 1240 794 1208 q 777 1290 800 1271 q 722 1310 754 1310 q 646 1269 689 1310 q 583 1201 615 1235 q 519 1278 569 1215 q 456 1310 494 1310 q 331 1225 418 1310 q 267 1160 283 1181 q 224 1082 226 1113 z "},"Ö":{"ha":1011,"x_min":-29,"x_max":938,"o":"m 890 172 q 844 47 886 124 q 631 -107 778 -75 q 407 -118 579 -118 q 94 -72 181 -118 q -29 196 -29 -7 q -22 346 -29 268 q 10 481 -11 467 q 97 501 26 492 q 150 553 147 508 q 286 889 164 794 q 574 961 379 961 q 765 942 711 961 q 918 769 874 903 q 935 672 938 710 l 890 172 m 736 161 l 781 682 q 767 727 782 696 q 742 769 753 758 q 671 806 714 797 q 561 807 664 807 q 457 807 461 807 q 368 760 411 800 q 318 681 321 715 l 272 157 q 310 81 269 121 q 388 38 350 42 q 496 36 400 36 l 543 36 q 581 38 540 36 q 604 38 581 38 q 684 84 635 38 q 736 161 733 131 m 492 1165 q 458 1094 488 1121 q 383 1067 428 1067 q 315 1094 340 1067 q 293 1165 289 1122 q 327 1237 297 1210 q 401 1264 357 1264 q 470 1236 444 1264 q 492 1165 496 1208 m 747 1165 q 713 1094 743 1121 q 639 1067 683 1067 q 570 1094 596 1067 q 549 1165 544 1122 q 583 1237 553 1210 q 657 1264 613 1264 q 726 1236 700 1264 q 747 1165 751 1208 z "},"Ø":{"ha":1010,"x_min":-15,"x_max":968,"o":"m 904 172 q 858 47 900 122 q 644 -107 790 -75 q 421 -118 593 -118 q 108 -72 194 -118 q -15 196 -15 -7 q -10 303 -15 225 q -4 392 -8 328 q 24 481 1 468 q 111 501 36 490 q 164 553 161 508 q 300 889 179 794 q 588 961 393 961 q 749 950 692 961 q 787 935 758 949 q 821 921 815 921 q 836 934 825 921 q 850 949 847 947 q 899 961 872 961 q 949 937 929 961 q 967 882 968 913 q 944 841 963 868 q 922 800 926 814 q 935 733 922 786 q 947 672 949 679 l 904 172 m 747 161 l 785 586 q 610 322 739 518 q 538 201 590 289 q 431 113 485 113 q 381 132 403 113 q 358 179 358 151 q 361 194 358 188 l 731 785 q 685 806 717 793 q 574 807 676 807 q 471 807 474 807 q 382 760 424 800 q 332 681 335 715 l 286 157 q 322 81 283 119 q 400 38 361 43 q 508 36 410 36 l 557 36 q 593 38 554 36 q 617 38 593 38 q 697 83 650 38 q 747 161 744 128 z "},"Ù":{"ha":1010,"x_min":-60,"x_max":956,"o":"m 878 53 q 804 -58 874 3 q 685 -118 735 -118 l -8 -118 q -42 -99 -25 -118 q -58 -64 -60 -81 l -14 444 q 8 481 -12 468 q 96 504 24 490 q 150 554 146 514 l 182 907 q 213 949 185 933 q 264 961 235 961 q 313 949 292 961 q 336 908 339 933 l 260 36 l 689 36 q 711 49 697 36 q 725 69 725 61 l 799 907 q 829 949 801 933 q 881 961 851 961 q 929 949 908 961 q 953 908 956 933 l 878 53 m 588 1157 l 596 1072 q 525 1000 596 1000 q 444 1054 461 1000 q 433 1153 442 1061 l 425 1239 q 497 1308 425 1308 q 578 1251 561 1308 q 588 1157 578 1249 z "},"Ú":{"ha":1010,"x_min":-60,"x_max":956,"o":"m 878 53 q 804 -58 874 3 q 685 -118 735 -118 l -8 -118 q -42 -99 -25 -118 q -58 -64 -60 -81 l -14 444 q 8 481 -12 468 q 96 504 24 490 q 150 554 146 514 l 182 907 q 213 949 185 933 q 264 961 235 961 q 313 949 292 961 q 336 908 339 933 l 260 36 l 689 36 q 711 49 697 36 q 725 69 725 61 l 799 907 q 829 949 801 933 q 881 961 851 961 q 929 949 908 961 q 953 908 956 933 l 878 53 m 434 1153 q 422 1107 434 1153 q 410 1050 410 1061 q 469 1000 410 1000 q 560 1054 533 1000 q 590 1157 567 1067 q 613 1260 613 1247 q 551 1308 613 1308 q 460 1251 488 1308 q 434 1153 458 1246 z "},"Û":{"ha":1010,"x_min":-61,"x_max":953,"o":"m 875 53 q 802 -58 871 1 q 682 -118 733 -118 l -11 -118 q -45 -100 -29 -118 q -60 -64 -61 -82 l -15 444 q 26 490 -12 476 q 93 504 33 493 q 147 554 143 514 l 179 907 q 210 949 182 933 q 261 961 232 961 q 310 949 289 961 q 333 908 336 933 l 257 36 l 686 36 q 708 49 694 36 q 722 69 722 61 l 796 907 q 826 949 799 933 q 878 961 849 961 q 926 949 906 961 q 950 908 953 933 l 875 53 m 382 1031 q 279 1131 347 1065 l 397 1257 q 525 1372 467 1328 q 735 1136 600 1297 q 614 1031 694 1099 q 560 1092 597 1051 q 506 1154 522 1133 l 382 1031 z "},"Ü":{"ha":1010,"x_min":-57,"x_max":958,"o":"m 881 53 q 807 -58 876 3 q 688 -118 738 -118 l -6 -118 q -40 -100 -24 -118 q -56 -64 -57 -82 l -11 444 q 31 490 -8 476 q 97 504 39 493 q 153 554 149 514 l 183 907 q 214 949 186 933 q 265 961 236 961 q 314 949 293 961 q 338 908 340 933 l 261 36 l 690 36 q 713 49 699 36 q 728 69 726 61 l 801 907 q 883 961 806 961 q 932 949 911 961 q 956 908 958 933 l 881 53 m 492 1165 q 458 1094 488 1121 q 383 1067 428 1067 q 315 1094 340 1067 q 293 1165 289 1122 q 327 1237 297 1210 q 401 1264 357 1264 q 470 1236 444 1264 q 492 1165 496 1208 m 747 1165 q 713 1094 743 1121 q 639 1067 683 1067 q 570 1094 596 1067 q 549 1165 544 1122 q 583 1237 553 1210 q 657 1264 613 1264 q 726 1236 700 1264 q 747 1165 751 1208 z "},"Ý":{"ha":1010,"x_min":-57,"x_max":910,"o":"m 900 303 q 867 101 888 158 q 700 -83 822 -24 q 572 -118 629 -118 l 115 -118 q 74 -104 103 -118 q -44 94 -57 -43 q 42 190 -36 190 q 113 129 113 190 q 108 101 113 119 q 104 72 104 82 q 197 31 104 31 q 257 33 224 31 l 290 36 q 442 38 328 36 q 527 80 478 38 q 579 157 576 122 l 594 344 l 269 344 q 206 356 249 344 q 147 379 164 368 q 38 483 71 426 q 6 626 6 539 q 15 767 6 661 l 28 903 q 110 961 44 961 q 158 949 138 961 q 182 908 185 933 l 157 619 q 164 604 158 617 q 200 538 157 578 q 272 499 243 499 l 608 499 l 644 907 q 726 961 649 961 q 775 949 754 961 q 799 908 801 933 l 768 553 q 824 500 764 510 q 897 481 893 489 q 910 414 910 463 q 900 303 910 413 m 434 1153 q 422 1107 434 1153 q 410 1050 410 1061 q 469 1000 410 1000 q 560 1054 533 1000 q 590 1157 567 1067 q 613 1260 613 1247 q 551 1308 613 1308 q 460 1251 488 1308 q 434 1153 458 1246 z "},"à":{"ha":836,"x_min":-32,"x_max":758,"o":"m 742 113 q 732 -14 740 78 q 667 -118 719 -118 l 128 -118 q 86 -104 114 -118 q -32 68 -32 -46 q -29 113 -32 79 q 125 331 -15 281 q 169 344 164 344 l 450 344 q 460 407 456 364 q 463 447 463 438 q 433 499 463 499 l 214 499 q 174 525 186 499 q 165 576 163 547 q 269 656 172 656 q 306 654 282 656 q 342 653 329 653 q 471 649 449 653 q 572 588 528 638 q 618 481 615 539 q 613 449 618 471 q 607 415 607 426 q 626 364 607 389 q 685 344 638 350 q 743 328 732 339 q 754 260 758 310 q 742 113 751 235 m 426 36 l 439 190 l 176 190 q 125 113 132 190 q 153 36 118 36 l 426 36 m 519 865 l 528 781 q 456 708 528 708 q 376 763 393 708 q 365 861 374 769 l 357 947 q 429 1017 357 1017 q 510 960 493 1017 q 519 865 510 957 z "},"á":{"ha":836,"x_min":-32,"x_max":758,"o":"m 742 113 q 732 -14 740 78 q 667 -118 719 -118 l 128 -118 q 86 -104 114 -118 q -32 68 -32 -46 q -29 113 -32 79 q 125 331 -15 281 q 169 344 164 344 l 450 344 q 460 407 456 364 q 463 447 463 438 q 433 499 463 499 l 214 499 q 174 525 186 499 q 165 576 163 547 q 269 656 172 656 q 306 654 282 656 q 342 653 329 653 q 471 649 449 653 q 572 588 528 638 q 618 481 615 539 q 613 449 618 471 q 607 415 607 426 q 626 364 607 389 q 685 344 638 350 q 743 328 732 339 q 754 260 758 310 q 742 113 751 235 m 426 36 l 439 190 l 176 190 q 125 113 132 190 q 153 36 118 36 l 426 36 m 365 862 q 352 816 365 862 q 340 758 340 769 q 401 708 340 708 q 492 763 465 708 q 521 866 497 774 q 544 968 544 958 q 483 1017 544 1017 q 392 960 419 1017 q 365 862 389 954 z "},"â":{"ha":840,"x_min":-32,"x_max":753,"o":"m 742 113 q 732 -14 735 26 q 667 -118 715 -118 l 128 -118 q 86 -104 114 -118 q -32 68 -32 -46 q -31 113 -32 96 q 125 331 -17 281 q 168 344 164 344 l 449 344 q 458 407 454 364 q 461 447 461 438 q 432 499 461 499 l 213 499 q 174 526 186 499 q 165 576 163 549 q 268 656 172 656 q 305 654 281 656 q 342 653 329 653 q 471 649 449 653 q 571 588 526 638 q 618 481 615 538 q 612 449 618 471 q 606 415 606 426 q 635 357 606 374 q 692 343 647 350 q 742 326 732 338 q 753 260 753 314 q 742 113 753 239 m 425 36 l 439 190 l 175 190 q 124 113 131 190 q 151 36 118 36 l 425 36 m 297 690 q 194 790 263 725 l 313 917 q 442 1032 382 989 q 651 796 515 957 q 531 690 610 758 q 476 752 514 711 q 422 814 439 793 l 297 690 z "},"ã":{"ha":843,"x_min":-31,"x_max":756,"o":"m 744 113 q 735 -14 738 26 q 669 -118 717 -118 l 131 -118 q 89 -104 117 -118 q -31 68 -31 -46 q -28 113 -31 82 q 126 331 -12 281 q 171 344 165 344 l 451 344 q 461 407 457 364 q 464 447 464 438 q 435 499 464 499 l 215 499 q 167 576 161 499 q 271 656 172 656 q 307 654 283 656 q 343 653 331 653 q 472 649 451 653 q 573 588 529 638 q 619 481 617 539 q 615 448 621 472 q 608 415 608 424 q 638 357 608 374 q 694 343 650 350 q 745 326 735 338 q 756 260 756 314 q 744 113 756 239 m 428 36 l 442 190 l 178 190 q 126 113 133 190 q 154 36 119 36 l 428 36 m 125 749 q 144 697 122 717 q 199 676 167 676 q 267 711 235 676 q 339 785 326 775 q 401 711 356 772 q 467 676 428 676 q 578 746 513 676 q 676 854 604 776 q 699 907 696 875 q 679 958 701 939 q 625 976 657 976 q 547 936 592 976 q 485 868 546 935 q 421 944 468 885 q 357 976 396 976 q 232 892 319 976 q 168 826 185 847 q 125 749 128 779 z "},"ä":{"ha":842,"x_min":-26,"x_max":764,"o":"m 747 113 q 738 -14 746 78 q 672 -118 725 -118 l 133 -118 q 92 -104 119 -118 q -26 68 -26 -46 q -24 113 -26 79 q 131 331 -10 281 q 175 344 169 344 l 456 344 q 465 407 461 364 q 468 447 468 438 q 439 499 468 499 l 219 499 q 179 525 192 499 q 171 576 168 547 q 275 656 178 656 q 311 654 288 656 q 347 653 335 653 q 476 649 454 653 q 577 588 533 638 q 624 481 621 539 q 618 449 624 471 q 613 415 613 426 q 632 364 613 389 q 690 344 643 350 q 749 328 738 339 q 760 260 764 310 q 747 113 757 235 m 432 36 l 444 190 l 182 190 q 131 113 138 190 q 158 36 124 36 l 432 36 m 364 790 q 330 719 360 746 q 256 692 300 692 q 187 719 211 692 q 167 790 163 746 q 200 862 171 835 q 274 889 229 889 q 342 861 317 889 q 364 790 368 833 m 619 790 q 585 719 615 746 q 511 692 556 692 q 442 719 467 692 q 422 790 418 746 q 456 862 426 835 q 529 889 485 889 q 598 861 572 889 q 619 790 624 833 z "},"å":{"ha":831,"x_min":-29,"x_max":756,"o":"m 744 113 q 735 -14 738 26 q 669 -118 717 -118 l 131 -118 q 89 -104 117 -118 q -29 68 -29 -46 q -28 113 -29 96 q 126 331 -14 281 q 171 344 165 344 l 451 344 q 461 407 457 364 q 464 447 464 438 q 435 499 464 499 l 215 499 q 168 576 161 499 q 271 656 175 656 q 308 654 283 656 q 344 653 332 653 q 474 649 451 653 q 574 588 531 638 q 619 481 617 539 q 615 448 621 472 q 608 415 608 424 q 638 357 608 374 q 694 343 650 350 q 745 326 735 338 q 756 260 756 314 q 744 113 756 239 m 428 36 l 442 190 l 178 190 q 126 113 133 190 q 154 36 121 36 l 428 36 m 274 860 q 313 938 278 906 q 394 971 349 971 q 470 938 440 971 q 496 860 500 906 q 456 781 492 814 q 375 749 421 749 q 299 781 329 749 q 274 860 269 814 m 351 863 q 385 825 349 825 q 425 863 422 825 q 392 900 428 900 q 351 863 354 900 z "},"æ":{"ha":1135,"x_min":-15,"x_max":1075,"o":"m 1072 303 q 1008 190 1061 190 l 681 190 q 675 172 676 188 q 711 84 672 132 q 790 36 750 36 l 943 36 q 982 8 968 36 q 992 -42 994 -14 q 972 -92 990 -65 q 931 -118 953 -118 l 144 -118 q 103 -104 131 -118 q -15 68 -15 -46 q -14 113 -15 96 q 140 331 0 281 q 185 344 179 344 l 465 344 q 475 407 471 364 q 478 447 478 438 q 449 499 478 499 l 229 499 q 181 576 175 499 q 285 656 186 656 q 322 654 297 656 q 358 653 346 653 q 479 649 453 653 q 592 586 550 638 q 687 634 628 615 q 794 653 746 653 q 1006 567 932 653 q 1075 347 1075 486 q 1072 303 1075 332 m 922 346 l 924 374 q 901 440 925 403 q 815 497 876 478 q 782 499 811 499 q 676 460 731 499 q 617 372 622 422 l 614 346 l 922 346 m 354 36 l 368 190 l 192 190 q 140 113 147 190 q 168 36 133 36 l 354 36 z "},"è":{"ha":831,"x_min":-22,"x_max":761,"o":"m 758 303 q 694 190 747 190 l 289 190 q 285 172 286 188 q 319 83 281 131 q 399 36 358 36 l 629 36 q 667 10 654 36 q 678 -42 681 -15 q 618 -117 672 -114 q 429 -118 593 -118 q 101 -74 192 -118 q -22 167 -22 -12 q -19 226 -22 197 q -7 303 -14 286 q 51 342 8 342 q 135 358 115 342 q 171 435 147 371 q 201 508 192 490 q 324 613 236 569 q 481 653 406 653 q 692 567 618 653 q 761 347 761 486 q 758 303 761 332 m 608 346 l 610 374 q 597 419 611 390 q 571 460 583 447 q 501 497 550 481 q 467 499 494 499 q 364 461 415 499 q 303 372 308 421 l 300 346 l 608 346 m 519 865 l 528 781 q 456 708 528 708 q 376 763 393 708 q 365 861 374 769 l 357 947 q 429 1017 357 1017 q 510 960 493 1017 q 519 865 510 957 z "},"é":{"ha":829,"x_min":-22,"x_max":761,"o":"m 758 303 q 694 190 747 190 l 289 190 q 285 172 286 188 q 319 83 281 131 q 399 36 358 36 l 629 36 q 667 10 654 36 q 678 -42 681 -15 q 618 -117 672 -114 q 429 -118 593 -118 q 101 -74 192 -118 q -22 167 -22 -12 q -19 226 -22 197 q -7 303 -14 286 q 51 342 8 342 q 135 358 115 342 q 171 435 147 371 q 201 508 192 490 q 324 613 236 569 q 481 653 406 653 q 692 567 618 653 q 761 347 761 486 q 758 303 761 332 m 608 346 l 610 374 q 597 419 611 390 q 571 460 583 447 q 501 497 550 481 q 467 499 494 499 q 364 461 415 499 q 303 372 308 421 l 300 346 l 608 346 m 365 862 q 352 816 365 862 q 340 758 340 769 q 401 708 340 708 q 492 763 465 708 q 521 866 497 774 q 544 968 544 958 q 483 1017 544 1017 q 392 960 419 1017 q 365 862 389 954 z "},"ê":{"ha":835,"x_min":-22,"x_max":760,"o":"m 758 303 q 693 190 749 190 l 289 190 q 283 172 285 188 q 318 83 279 131 q 399 36 357 36 l 629 36 q 668 8 654 36 q 676 -42 679 -14 q 653 -100 674 -79 q 494 -121 633 -125 q 435 -119 454 -119 q 428 -118 417 -118 q 100 -74 190 -118 q -22 167 -22 -14 q -21 226 -22 207 q -8 303 -17 282 q 50 342 7 342 q 132 358 114 342 q 169 432 147 371 q 201 508 190 488 q 324 613 236 569 q 481 653 406 653 q 690 567 617 653 q 760 347 760 486 q 758 303 760 319 m 607 346 l 610 374 q 597 418 611 388 q 571 460 582 449 q 500 497 550 481 q 467 499 496 499 q 362 460 417 499 q 301 372 307 421 l 299 346 l 607 346 m 372 690 q 269 790 338 725 l 388 917 q 517 1032 457 989 q 726 796 590 957 q 606 690 685 758 q 551 752 589 711 q 497 814 514 793 l 372 690 z "},"ë":{"ha":838,"x_min":-17,"x_max":767,"o":"m 764 303 q 700 190 753 190 l 294 190 q 290 172 292 188 q 325 83 286 131 q 404 36 364 36 l 635 36 q 673 10 660 36 q 683 -42 686 -15 q 624 -117 678 -114 q 435 -118 599 -118 q 107 -74 197 -118 q -17 167 -17 -12 q -14 226 -17 197 q -1 303 -8 286 q 57 342 14 342 q 139 358 119 342 q 176 431 153 371 q 208 508 199 490 q 339 617 244 574 q 486 653 418 653 q 697 567 624 653 q 767 347 767 486 q 764 303 767 332 m 614 346 l 615 374 q 600 426 617 394 q 507 497 575 476 q 472 499 500 499 q 369 461 421 499 q 308 372 314 421 l 306 346 l 614 346 m 471 790 q 437 719 467 746 q 363 692 407 692 q 294 719 318 692 q 274 790 269 746 q 307 862 278 835 q 381 889 336 889 q 449 861 424 889 q 471 790 475 833 m 726 790 q 692 719 722 746 q 618 692 663 692 q 549 719 574 692 q 529 790 525 746 q 563 862 533 835 q 636 889 592 889 q 705 861 679 889 q 726 790 731 833 z "},"ì":{"ha":392,"x_min":-40,"x_max":333,"o":"m 264 -65 q 190 -117 260 -108 q 104 -118 179 -118 q -7 -114 4 -118 q -40 -31 -40 -101 q -29 113 -40 -14 l -19 224 q 7 326 -11 317 q 97 347 11 329 q 150 399 147 358 l 167 599 q 197 639 168 624 q 249 653 222 653 q 297 640 275 653 q 322 600 325 625 l 264 -65 m 325 865 l 333 781 q 261 708 333 708 q 182 763 199 708 q 171 861 179 769 l 163 947 q 235 1017 163 1017 q 315 960 299 1017 q 325 865 315 957 z "},"í":{"ha":419,"x_min":-40,"x_max":393,"o":"m 264 -65 q 190 -117 260 -108 q 104 -118 179 -118 q -7 -114 4 -118 q -40 -31 -40 -101 q -29 113 -40 -14 l -19 224 q 7 326 -11 317 q 97 347 11 329 q 150 399 147 358 l 167 599 q 197 639 168 624 q 249 653 222 653 q 297 640 275 653 q 322 600 325 625 l 264 -65 m 213 862 q 201 816 213 862 q 189 758 189 769 q 250 708 189 708 q 340 763 314 708 q 369 866 346 774 q 393 968 393 958 q 332 1017 393 1017 q 240 960 268 1017 q 213 862 238 954 z "},"î":{"ha":435,"x_min":-42,"x_max":496,"o":"m 263 -65 q 190 -117 258 -108 q 104 -118 179 -118 q -7 -114 4 -118 q -42 -31 -42 -101 q -31 113 -42 -7 q -19 224 -24 188 q 7 326 -8 319 q 96 347 15 331 q 149 399 144 357 l 167 599 q 196 638 169 624 q 249 653 222 653 q 297 640 276 653 q 321 600 324 625 l 263 -65 m 142 690 q 39 790 107 725 l 157 917 q 286 1032 226 989 q 496 796 360 957 q 375 690 454 758 q 321 752 358 711 q 267 814 283 793 l 142 690 z "},"ï":{"ha":428,"x_min":-35,"x_max":499,"o":"m 269 -65 q 196 -117 265 -108 q 110 -118 185 -118 q -1 -114 10 -118 q -35 -31 -35 -101 q -24 113 -35 -14 l -14 224 q 13 326 -6 317 q 103 347 17 328 q 156 399 151 358 l 174 599 q 204 639 176 624 q 256 653 228 653 q 304 640 283 653 q 328 600 331 625 l 269 -65 m 239 790 q 205 719 235 746 q 131 692 175 692 q 62 719 86 692 q 42 790 38 746 q 75 862 46 835 q 149 889 104 889 q 217 861 192 889 q 239 790 243 833 m 494 790 q 460 719 490 746 q 386 692 431 692 q 317 719 342 692 q 297 790 293 746 q 331 862 301 835 q 404 889 360 889 q 473 861 447 889 q 494 790 499 833 z "},"ñ":{"ha":1008,"x_min":-39,"x_max":919,"o":"m 901 154 q 883 -60 897 97 q 801 -118 878 -118 q 753 -104 775 -118 q 728 -64 725 -87 l 767 378 q 721 461 771 419 q 647 497 683 493 q 563 499 633 497 q 500 499 563 499 l 472 501 q 422 503 458 503 q 311 467 314 503 l 265 -65 q 192 -117 261 -108 q 107 -118 181 -118 q -6 -115 3 -118 q -39 -31 -39 -103 q -28 113 -39 -14 l -18 224 q 10 328 -10 319 q 71 340 24 333 q 129 361 110 347 q 151 417 149 375 q 160 482 156 471 q 375 653 228 653 l 503 653 q 772 624 703 653 q 919 374 910 567 q 901 154 917 338 m 306 749 q 325 697 303 717 q 379 676 347 676 q 447 711 415 676 q 519 785 507 775 q 582 711 536 772 q 647 676 608 676 q 758 746 693 676 q 857 854 785 776 q 879 907 876 875 q 860 958 882 939 q 806 976 838 976 q 728 936 772 976 q 665 868 726 935 q 601 944 649 885 q 538 976 576 976 q 413 892 500 976 q 349 826 365 847 q 306 749 308 779 z "},"ò":{"ha":988,"x_min":-22,"x_max":914,"o":"m 910 268 q 751 -64 888 15 q 414 -118 658 -118 q 122 -82 206 -118 q -22 174 -22 -19 q -19 226 -22 197 q -4 313 -12 299 q 69 344 11 339 q 136 365 119 350 q 164 429 153 381 q 278 583 183 515 q 463 651 372 651 q 482 651 482 651 q 514 653 515 653 l 558 653 q 819 589 736 653 q 914 344 914 517 q 910 268 914 315 m 756 268 q 760 344 760 317 q 699 476 760 444 q 544 499 657 499 q 353 455 401 499 q 293 268 306 411 q 289 190 289 219 q 350 58 289 90 q 504 36 392 36 q 694 81 646 36 q 756 268 743 126 m 519 865 l 528 781 q 456 708 528 708 q 376 763 393 708 q 365 861 374 769 l 357 947 q 429 1017 357 1017 q 510 960 493 1017 q 519 865 510 957 z "},"ó":{"ha":988,"x_min":-22,"x_max":914,"o":"m 910 268 q 751 -64 888 15 q 414 -118 658 -118 q 122 -82 206 -118 q -22 174 -22 -19 q -19 226 -22 197 q -4 313 -12 299 q 69 344 11 339 q 136 365 119 350 q 164 429 153 381 q 278 583 183 515 q 463 651 372 651 q 482 651 482 651 q 514 653 515 653 l 558 653 q 819 589 736 653 q 914 344 914 517 q 910 268 914 315 m 756 268 q 760 344 760 317 q 699 476 760 444 q 544 499 657 499 q 353 455 401 499 q 293 268 306 411 q 289 190 289 219 q 350 58 289 90 q 504 36 392 36 q 694 81 646 36 q 756 268 743 126 m 365 862 q 352 816 365 862 q 340 758 340 769 q 401 708 340 708 q 492 763 465 708 q 521 866 497 774 q 544 968 544 958 q 483 1017 544 1017 q 392 960 419 1017 q 365 862 389 954 z "},"ô":{"ha":1006,"x_min":-22,"x_max":913,"o":"m 910 268 q 750 -64 889 17 q 413 -118 657 -118 q 122 -82 206 -118 q -22 174 -22 -19 q -21 226 -22 208 q -4 313 -15 296 q 69 344 13 339 q 136 365 119 350 q 164 429 153 381 q 278 583 183 515 q 463 651 372 651 q 481 651 474 651 q 513 653 514 653 l 557 653 q 818 590 735 653 q 913 344 913 517 q 910 268 913 301 m 756 268 q 758 344 758 301 q 699 476 758 444 q 543 499 657 499 q 352 455 400 499 q 292 268 304 411 q 288 190 288 219 q 349 58 288 90 q 503 36 390 36 q 690 75 644 36 q 756 268 743 119 m 436 690 q 333 790 401 725 l 451 917 q 581 1032 521 989 q 790 796 654 957 q 669 690 749 758 q 615 752 653 711 q 561 814 578 793 l 436 690 z "},"õ":{"ha":1004,"x_min":-21,"x_max":915,"o":"m 911 268 q 753 -64 889 15 q 415 -118 660 -118 q 124 -82 207 -118 q -21 174 -21 -19 q -18 226 -21 197 q -1 313 -11 296 q 72 344 14 339 q 138 365 121 350 q 165 429 154 379 q 279 583 185 515 q 464 651 374 651 q 483 651 483 651 q 515 653 517 653 l 560 653 q 821 590 738 653 q 915 344 915 517 q 911 268 915 315 m 757 268 q 761 344 761 317 q 700 476 761 444 q 546 499 658 499 q 355 455 403 499 q 294 268 307 411 q 290 190 290 219 q 351 58 290 90 q 506 36 393 36 q 696 81 647 36 q 757 268 744 126 m 292 749 q 311 697 289 717 q 365 676 333 676 q 433 711 401 676 q 506 785 493 775 q 568 711 522 772 q 633 676 594 676 q 744 746 679 676 q 843 854 771 776 q 865 907 863 875 q 846 958 868 939 q 792 976 824 976 q 714 936 758 976 q 651 868 713 935 q 588 944 635 885 q 524 976 563 976 q 399 892 486 976 q 335 826 351 847 q 292 749 294 779 z "},"ö":{"ha":1007,"x_min":-17,"x_max":919,"o":"m 915 268 q 757 -64 893 15 q 419 -118 664 -118 q 128 -82 211 -118 q -17 174 -17 -19 q -14 226 -17 197 q 1 313 -7 299 q 75 344 17 339 q 142 365 125 350 q 169 429 158 381 q 283 583 189 515 q 468 651 378 651 q 488 651 488 651 q 519 653 521 653 l 564 653 q 825 589 742 653 q 919 344 919 517 q 915 268 919 315 m 761 268 q 765 344 765 317 q 704 476 765 444 q 550 499 663 499 q 359 455 407 499 q 299 268 311 411 q 294 190 294 219 q 356 58 294 90 q 510 36 397 36 q 700 81 651 36 q 761 268 749 126 m 532 790 q 498 719 528 746 q 424 692 468 692 q 355 719 379 692 q 335 790 331 746 q 368 862 339 835 q 442 889 397 889 q 510 861 485 889 q 532 790 536 833 m 788 790 q 753 719 783 746 q 679 692 724 692 q 610 719 635 692 q 590 790 586 746 q 624 862 594 835 q 697 889 653 889 q 766 861 740 889 q 788 790 792 833 z "},"ø":{"ha":1010,"x_min":-6,"x_max":954,"o":"m 926 268 q 767 -64 904 15 q 429 -118 674 -118 q 138 -82 222 -118 q -6 174 -6 -21 q -4 226 -6 208 q 13 313 1 296 q 86 344 29 339 q 152 365 135 350 q 181 429 169 381 q 296 583 199 514 q 478 651 389 651 q 497 651 497 651 q 529 653 531 653 l 574 653 q 731 640 660 653 q 771 626 740 639 q 807 613 801 613 q 825 624 814 613 l 836 636 q 888 653 867 653 q 934 626 914 653 q 953 571 954 599 q 935 532 951 556 q 906 501 919 508 q 933 364 933 442 q 926 268 933 347 m 771 268 q 775 386 778 347 q 574 201 681 297 q 408 88 447 88 q 357 109 376 88 q 340 163 338 131 q 504 342 343 196 q 672 492 575 406 l 465 499 q 331 401 360 469 q 308 268 318 372 q 304 190 304 224 q 365 58 304 90 q 519 36 407 36 q 710 80 663 36 q 771 268 758 124 z "},"ù":{"ha":854,"x_min":-22,"x_max":788,"o":"m 738 53 q 701 -17 736 31 q 647 -75 667 -65 q 571 -112 622 -92 q 393 -118 535 -118 q 104 -75 190 -118 q -22 171 -22 -12 q -19 226 -22 192 q 7 326 -12 313 q 92 349 17 333 q 150 399 147 360 l 167 599 q 197 639 168 624 q 249 653 222 653 q 297 640 275 653 q 322 600 325 625 l 283 156 q 328 75 279 115 q 396 38 367 43 q 460 35 415 35 q 525 36 481 35 q 531 35 528 35 q 583 69 581 39 l 631 599 q 713 653 635 653 q 761 640 740 653 q 785 600 788 625 l 738 53 m 519 865 l 528 781 q 456 708 528 708 q 376 763 393 708 q 365 861 374 769 l 357 947 q 429 1017 357 1017 q 510 960 493 1017 q 519 865 510 957 z "},"ú":{"ha":854,"x_min":-22,"x_max":788,"o":"m 738 53 q 701 -17 736 31 q 647 -75 667 -65 q 571 -112 622 -92 q 393 -118 535 -118 q 104 -75 190 -118 q -22 171 -22 -12 q -19 226 -22 192 q 7 326 -12 313 q 92 349 17 333 q 150 399 147 360 l 167 599 q 197 639 168 624 q 249 653 222 653 q 297 640 275 653 q 322 600 325 625 l 283 156 q 328 75 279 115 q 396 38 367 43 q 460 35 415 35 q 525 36 481 35 q 531 35 528 35 q 583 69 581 39 l 631 599 q 713 653 635 653 q 761 640 740 653 q 785 600 788 625 l 738 53 m 365 862 q 352 816 365 862 q 340 758 340 769 q 401 708 340 708 q 492 763 465 708 q 521 866 497 774 q 544 968 544 958 q 483 1017 544 1017 q 392 960 419 1017 q 365 862 389 954 z "},"û":{"ha":856,"x_min":-22,"x_max":786,"o":"m 736 53 q 646 -75 732 7 q 571 -112 622 -92 q 392 -118 535 -118 q 104 -75 190 -118 q -22 171 -22 -12 q -21 226 -22 210 q 7 326 -14 310 q 90 349 17 335 q 149 399 144 360 l 167 599 q 196 638 169 624 q 249 653 222 653 q 297 640 276 653 q 321 600 324 625 l 282 156 q 320 79 279 119 q 399 38 361 39 q 472 36 431 36 q 531 35 544 36 q 583 69 581 39 l 629 599 q 660 640 632 625 q 711 653 682 653 q 760 640 739 653 q 783 600 786 625 l 736 53 m 354 690 q 251 790 319 725 l 369 917 q 499 1032 439 989 q 708 796 572 957 q 588 690 667 758 q 533 752 571 711 q 479 814 496 793 l 354 690 z "},"ü":{"ha":850,"x_min":-17,"x_max":792,"o":"m 743 53 q 707 -17 742 31 q 653 -75 672 -65 q 576 -112 628 -92 q 399 -118 540 -118 q 110 -75 196 -118 q -17 171 -17 -12 q -14 226 -17 192 q 13 326 -7 313 q 97 349 22 333 q 156 399 151 360 l 174 599 q 204 639 176 624 q 256 653 228 653 q 304 640 283 653 q 328 600 331 625 l 289 156 q 333 75 285 115 q 401 38 372 43 q 465 35 421 35 q 531 36 486 35 q 536 35 533 35 q 590 69 588 39 l 636 599 q 718 653 640 653 q 767 640 743 653 q 790 600 792 624 l 743 53 m 461 790 q 427 719 457 746 q 353 692 397 692 q 284 719 308 692 q 264 790 260 746 q 297 862 268 835 q 371 889 326 889 q 440 861 414 889 q 461 790 465 833 m 717 790 q 683 719 713 746 q 608 692 653 692 q 540 719 564 692 q 519 790 515 746 q 553 862 524 835 q 626 889 582 889 q 695 861 669 889 q 717 790 721 833 z "},"ý":{"ha":843,"x_min":-7,"x_max":772,"o":"m 753 74 q 731 -146 743 -49 q 543 -393 685 -335 q 282 -425 465 -425 q 237 -426 267 -425 q 192 -428 207 -428 q 121 -414 142 -428 q 99 -349 94 -396 q 126 -285 103 -303 q 196 -269 147 -271 q 288 -269 196 -269 q 372 -227 324 -269 q 424 -150 421 -185 l 426 -117 l 256 -117 q 133 -82 213 -117 q -7 185 -7 -21 q 7 382 -7 196 q 26 596 15 485 q 108 654 32 654 q 157 642 136 654 q 181 601 183 626 l 142 158 q 150 143 143 156 q 186 76 143 115 q 258 38 229 38 l 440 38 l 489 600 q 519 642 492 626 q 571 654 542 654 q 619 642 597 654 q 644 601 647 626 l 626 400 q 653 354 624 368 q 711 343 665 349 q 757 328 749 339 q 771 288 772 307 q 753 74 763 203 m 378 862 q 366 816 378 862 q 354 758 354 769 q 415 708 354 708 q 506 763 479 708 q 535 866 511 774 q 558 968 558 958 q 497 1017 558 1017 q 406 960 433 1017 q 378 862 403 954 z "},"ÿ":{"ha":844,"x_min":-1,"x_max":778,"o":"m 758 74 q 736 -146 749 -49 q 549 -393 690 -335 q 288 -425 471 -425 q 242 -426 272 -425 q 197 -428 213 -428 q 126 -414 147 -428 q 104 -349 100 -396 q 132 -285 108 -303 q 201 -269 153 -271 q 293 -269 201 -269 q 378 -227 329 -269 q 429 -150 426 -185 l 432 -117 l 261 -117 q 139 -82 218 -117 q -1 185 -1 -21 q 14 382 1 218 q 32 596 18 439 q 114 654 38 654 q 163 642 142 654 q 186 601 189 626 l 147 158 q 156 143 149 156 q 192 77 149 117 q 264 38 235 38 l 446 38 l 494 600 q 578 654 499 654 q 626 642 606 654 q 650 601 653 626 l 632 400 q 658 354 629 368 q 717 343 671 349 q 763 328 754 339 q 776 288 778 307 q 758 74 768 203 m 349 790 q 315 719 344 746 q 242 692 286 692 q 173 719 199 692 q 151 790 147 747 q 185 862 156 835 q 260 889 215 889 q 328 862 304 889 q 349 790 353 835 m 604 790 q 571 719 600 746 q 497 692 542 692 q 428 719 454 692 q 407 790 403 747 q 441 862 411 835 q 515 889 471 889 q 584 862 560 889 q 604 790 608 835 z "},"ů":{"ha":1389,"x_min":0,"x_max":0,"o":""}}}
